<svg xmlns="http://www.w3.org/2000/svg" viewBox="0 0 485.5 37.33"><defs><style>.cls-1{fill:#eb392f;}.cls-2{fill:#08829f;}.cls-3{fill:#f38d25;}.cls-4{fill:#b8b8b8;}</style></defs><title>Asset 1</title><g id="Layer_2" data-name="Layer 2"><g id="Layer_1-2" data-name="Layer 1"><path class="cls-1" d="M280.42,12.67l2.16,2.18,2.34,2.36,1.15,1.15.33.33-3,2.95-3,3-1.83-1.83L276,20.23a1.93,1.93,0,0,0-1.37-.64,2,2,0,0,0-1.4.66c-1,1-2,2.07-3.06,3.1l-1.34,1.34-3.24-3.25-.73-.73-2-2,6-6,1.77,1.77,2.75,2.76a1.8,1.8,0,0,0,1.28.57,1.81,1.81,0,0,0,1.29-.57L278.05,15l.71-.7.66-.66,1-1M268.78,11c-.14,0-.27.12-.51.37l-7,7c-.29.29-.27.47,0,.74,1.11,1.09,2.21,2.2,3.31,3.3,1.25,1.26,2.51,2.51,3.75,3.77a.64.64,0,0,0,.42.23.5.5,0,0,0,.35-.18c1.66-1.68,3.33-3.33,5-5a.73.73,0,0,1,.47-.27.67.67,0,0,1,.45.25c1.49,1.51,3,3,4.5,4.51.43.43.64.64.86.64s.43-.21.87-.65L287.93,19a3.84,3.84,0,0,0,.26-.32c-.12-.13-.21-.25-.31-.35l-2-2-5-5.06a.62.62,0,0,0-.42-.22.51.51,0,0,0-.36.18l-2.21,2.22L275,16.31a.45.45,0,0,1-.73,0l-4.91-4.92c-.26-.26-.4-.39-.53-.39"/><path class="cls-2" d="M229.13,12.65l1.21,1.22,4,4,.28.29.51.51-3.57,3.59L230,23.91l-.59.58-.23.23L227,22.54l-2.24-2.25a1.77,1.77,0,0,0-2.8,0l-4.41,4.42-.85-.85-5.17-5.14L215.2,15l1.51-1.51.09-.09.71-.71,2.22,2.22,2.18,2.18a1.79,1.79,0,0,0,2.84,0l2.67-2.7,1.71-1.72M217.51,11c-.14.11-.27.18-.36.27l-1.36,1.35q-2.89,2.89-5.8,5.78c-.24.24-.27.4,0,.65l7.08,7.05c.21.21.33.31.46.31s.26-.11.48-.33l4.85-4.85c.19-.2.33-.29.47-.29s.28.1.49.31l4.94,5a.53.53,0,0,0,.38.2.57.57,0,0,0,.39-.21l1.35-1.35c1.91-1.92,3.81-3.85,5.73-5.76.31-.31.28-.5,0-.77s-.88-.87-1.32-1.31l-5.75-5.8a.53.53,0,0,0-.37-.19.56.56,0,0,0-.37.18c-1.64,1.67-3.29,3.32-4.94,5-.22.22-.36.33-.5.33s-.28-.1-.5-.31L218,11.32a4.52,4.52,0,0,0-.47-.37"/><path class="cls-3" d="M251.31,13.17,254,15.84l1,1,.71.71,1.13,1.14q-2.76,2.72-5.5,5.46v-11m-1.16-3a.71.71,0,0,0-.14.1V27.23a6.19,6.19,0,0,0,.58-.49c.5-.5,1-1,1.48-1.52L258.33,19c.25-.24.25-.41,0-.65-.83-.81-1.63-1.63-2.44-2.44l-4.17-4.17-1.57-1.54"/><path class="cls-3" d="M245.94,13.18c.06,3,.05,8,0,11L244,22.25l-3.56-3.56,4.09-4.1,1.41-1.41m1.14-2.9c-.14.11-.26.18-.36.27l-7.8,7.82c-.23.22-.25.39,0,.62,2.62,2.61,5.23,5.24,7.85,7.85a2.75,2.75,0,0,0,.33.23c.26-.41.28-16.31,0-16.79"/><path class="cls-4" d="M201.44,12l6.71,6.71-6.71,6.71-6.71-6.71Zm0-1.84-8.55,8.55,8.55,8.55L210,18.72Z"/><path class="cls-4" d="M297.78,12l6.72,6.72-6.72,6.71-6.71-6.71Zm0-1.83-8.55,8.55,8.55,8.55,8.55-8.55Z"/><path class="cls-4" d="M332.89,10.74l6.58,6.57,1,1,.29.3-.07.08-2,2.05L335.51,24l-2.61,2.63-4.11-4.11-1.65-1.65-.78-.78c-.47-.47-.93-.94-1.42-1.42.79-.78,1.57-1.56,2.35-2.35L328.62,15l1.77-1.77,2.5-2.48m16.86,2.66L352.3,16,355,18.69c-1.75,1.76-3.54,3.53-5.28,5.25l-4.57-4.57-.69-.69.72-.72c1.52-1.51,3-3,4.55-4.56M361.37,16l1.19,1.19,1.53,1.53-2.69,2.7-1.15-1.15c-.53-.52-1.05-1-1.57-1.56L361.37,16M332.88,9c-.14,0-.28.15-.56.42-1.53,1.55-3.08,3.08-4.62,4.62-1.38,1.37-2.74,2.76-4.14,4.12-.39.38-.31.63,0,1,.89.87,1.76,1.75,2.64,2.63L332.46,28a.69.69,0,0,0,.45.26.51.51,0,0,0,.36-.19l6.37-6.41c1-1,1.95-2,2.94-3l.28.23c2.13,2.13,4.26,4.25,6.39,6.39.23.23.36.36.48.36s.25-.11.48-.34c2.08-2.06,4.16-4.11,6.21-6.19a.65.65,0,0,1,.44-.26c.14,0,.28.1.45.28,1.23,1.24,2.49,2.47,3.73,3.71a.57.57,0,0,0,.37.21.52.52,0,0,0,.34-.19L365.58,19c.25-.25.25-.45,0-.71-1.24-1.22-2.45-2.46-3.68-3.69-.26-.25-.4-.38-.53-.38s-.26.13-.52.39q-1.71,1.74-3.44,3.47c-.24.25-.4.37-.56.37s-.32-.12-.56-.37c-2-2-4-4.06-6.07-6.1a.53.53,0,0,0-.92,0q-3.06,3.11-6.16,6.17c-.21.22-.35.32-.48.32s-.28-.11-.51-.34c-.58-.59-1.16-1.19-1.75-1.77l-6.95-6.95c-.28-.27-.42-.41-.56-.41"/><polygon class="cls-4" points="328.55 37.33 309.89 18.67 328.55 0 329.93 1.38 312.64 18.67 329.93 35.95 328.55 37.33"/><path class="cls-4" d="M166.62,10.71l4.14,4.13,1.62,1.62.78.79,1.42,1.41L172.22,21c-.44.45-.87.89-1.32,1.33l-1.76,1.76-2.51,2.5L160.05,20l-1-1-.29-.3.07-.08,2-2.05L164,13.33l2.61-2.62m-16.84,2.68Q152,15.67,154.34,18l.7.7-.72.72c-1.51,1.51-3,3-4.55,4.57l-2.55-2.56-2.72-2.73c1.75-1.77,3.54-3.54,5.28-5.26M138.12,16l1.15,1.14,1.57,1.56c-.9.9-1.79,1.81-2.69,2.72L137,20.19l-1.53-1.54L138.12,16M166.61,9a.51.51,0,0,0-.35.19q-3.19,3.21-6.38,6.41c-1,1-1.95,2-2.94,3l-.28-.23-6.39-6.38c-.23-.24-.36-.36-.48-.36s-.25.11-.48.34c-2.08,2.05-4.16,4.1-6.21,6.19a.67.67,0,0,1-.44.25.71.71,0,0,1-.45-.27c-1.23-1.25-2.49-2.47-3.73-3.72a.55.55,0,0,0-.37-.2.54.54,0,0,0-.34.18c-1.27,1.29-2.55,2.56-3.83,3.84-.25.25-.25.45,0,.71,1.24,1.23,2.45,2.46,3.68,3.69.26.26.4.38.53.38s.26-.13.51-.39l3.45-3.47c.24-.25.4-.37.56-.37s.32.13.56.37l6.07,6.11a.71.71,0,0,0,.46.25.69.69,0,0,0,.46-.27q3.06-3.11,6.16-6.17c.21-.21.35-.32.48-.32s.28.11.51.34c.58.59,1.16,1.19,1.75,1.78l7,6.94c.28.28.42.41.56.41s.28-.14.56-.42c1.53-1.54,3.08-3.07,4.62-4.61,1.38-1.38,2.74-2.77,4.14-4.13.39-.38.31-.62,0-1-.89-.86-1.76-1.75-2.64-2.62L167.06,9.3a.69.69,0,0,0-.45-.26"/><polygon class="cls-4" points="170.97 37.33 169.59 35.95 186.88 18.67 169.59 1.38 170.97 0 189.63 18.67 170.97 37.33"/><rect class="cls-4" y="18.02" width="135.37" height="1.3"/><path class="cls-4" d="M72.9,23.72a5.05,5.05,0,1,1,5-5,5.06,5.06,0,0,1-5,5m0-8.8a3.75,3.75,0,1,0,3.75,3.75,3.75,3.75,0,0,0-3.75-3.75"/><path class="cls-4" d="M87,23.72a5.05,5.05,0,1,1,5-5,5.06,5.06,0,0,1-5,5m0-8.8a3.75,3.75,0,1,0,3.75,3.75A3.75,3.75,0,0,0,87,14.92"/><rect class="cls-4" y="18.02" width="135.37" height="1.3"/><path class="cls-4" d="M72.9,23.72a5.05,5.05,0,1,1,5-5,5.06,5.06,0,0,1-5,5m0-8.8a3.75,3.75,0,1,0,3.75,3.75,3.75,3.75,0,0,0-3.75-3.75"/><path class="cls-4" d="M87,23.72a5.05,5.05,0,1,1,5-5,5.06,5.06,0,0,1-5,5m0-8.8a3.75,3.75,0,1,0,3.75,3.75A3.75,3.75,0,0,0,87,14.92"/><rect class="cls-4" x="364.63" y="18.02" width="120.88" height="1.3"/><path class="cls-4" d="M419.68,23.72a5.05,5.05,0,1,1,5.05-5,5.06,5.06,0,0,1-5.05,5m0-8.8a3.75,3.75,0,1,0,3.75,3.75,3.75,3.75,0,0,0-3.75-3.75"/><path class="cls-4" d="M433.76,23.72a5.05,5.05,0,1,1,5.05-5,5.06,5.06,0,0,1-5.05,5m0-8.8a3.75,3.75,0,1,0,3.75,3.75,3.75,3.75,0,0,0-3.75-3.75"/></g></g></svg>