<svg id="Layer_1" data-name="Layer 1" xmlns="http://www.w3.org/2000/svg" viewBox="0 0 2000 2000"><defs><style>.cls-1{fill:#878787;}</style></defs><path class="cls-1" d="M944.73,806.56H889.46V599.29a41.46,41.46,0,0,0-82.91,0v69.09H751.27V599.29a96.73,96.73,0,0,1,193.46,0Z"/><rect class="cls-1" x="751.27" y="778.92" width="55.27" height="248.7"/><rect class="cls-1" x="889.46" y="917.11" width="55.27" height="82.88"/><path class="cls-1" d="M1082.91,944.71h-55.27V544a41.46,41.46,0,1,0-82.91,0V806.56H889.46V544a96.73,96.73,0,1,1,193.45,0Z"/><path class="cls-1" d="M1221.09,1027.62h-55.27V599.29a41.46,41.46,0,0,0-82.91,0V944.71h-55.27V599.29a96.73,96.73,0,1,1,193.45,0Z"/><path class="cls-1" d="M1359.27,1221.08H1304V709.83a41.46,41.46,0,0,0-82.91,0v317.79h-55.27V709.83a96.73,96.73,0,0,1,193.45,0Z"/><path class="cls-1" d="M1055.38,1552.71c-135.86,0-250.3-44.78-331-129.49a396.5,396.5,0,0,1-83.52-133.15,425.28,425.28,0,0,1-27.7-151.9v-304h27.64c1.63,0,40.31.18,79.35,15.79,55.76,22.29,86.46,65.75,86.46,122.36v111.3c72.25,4,132.44,24.26,179.22,60.25,47.63,36.64,80,88.24,96.32,153.38l-53.62,13.41c-13.19-52.75-38.89-94.13-76.4-123-42.74-32.87-101-49.54-173.15-49.54H751.38V972.35c0-33.5-16.52-56.58-50.52-70.56a164.53,164.53,0,0,0-32.39-9.29v245.67a370.19,370.19,0,0,0,24.09,132.23,341.32,341.32,0,0,0,71.89,114.71c70,73.48,170.57,112.33,290.93,112.33,82.43,0,149.25-28.75,198.63-85.43,37.69-43.27,50.94-87.61,51.07-88.06l53.13,15.25c-.63,2.21-16,54.78-60.81,107.13a297.66,297.66,0,0,1-93.22,73.23C1160.2,1541.56,1110.14,1552.71,1055.38,1552.71Z"/><rect class="cls-1" x="972.36" y="257.42" width="55.27" height="1485.15" transform="translate(-414.21 1000.02) rotate(-45)"/></svg>