<svg width="47" height="37" viewBox="0 0 47 37" fill="none" xmlns="http://www.w3.org/2000/svg">
<path d="M9.63852 8.09535H1.48389V30.0028C1.48389 33.2914 2.47323 35.9818 5.51133 35.9818C8.54943 35.9818 9.63852 33.2914 9.63852 30.0028V1H45.5161V30.9175C45.5161 30.9175 45.2177 36 39.5496 36H5.66467" stroke="#274F51" stroke-width="1.8"/>
<path d="M25.3692 14.5484H14.8568C14.3302 14.5484 13.9033 14.9232 13.9033 15.3855V25.0017C13.9033 25.464 14.3302 25.8387 14.8568 25.8387H25.3692C25.8958 25.8387 26.3227 25.464 26.3227 25.0017V15.3855C26.3227 14.9232 25.8958 14.5484 25.3692 14.5484Z" stroke="#274F51" stroke-width="1.8"/>
<path d="M30.8387 14.5484H41" stroke="#274F51" stroke-width="1.8" stroke-linecap="round"/>
<path d="M30.8387 21.3226H41" stroke="#274F51" stroke-width="1.8" stroke-linecap="round"/>
<path d="M30.8387 25.8387H36.4839" stroke="#274F51" stroke-width="1.8" stroke-linecap="round"/>
<path d="M13.9033 7.77417H41.0001" stroke="#274F51" stroke-width="1.8" stroke-linecap="round"/>
</svg>
