<svg width="47" height="54" viewBox="0 0 47 54" fill="none" xmlns="http://www.w3.org/2000/svg">
<path d="M34.7929 22.3092V22.3092C34.9786 22.314 35.1546 22.3934 35.2833 22.5295C35.412 22.6654 35.4836 22.8472 35.4835 23.0359V45.9587C35.4835 46.1505 35.4096 46.335 35.2771 46.4715C35.1445 46.6081 34.964 46.6854 34.7751 46.6854H20.0158L24.8722 51.8429C24.8724 51.8431 24.8725 51.8433 24.8727 51.8435C24.9382 51.911 24.99 51.9909 25.0253 52.0787C25.0607 52.1667 25.0789 52.2609 25.0789 52.356C25.0789 52.4511 25.0607 52.5454 25.0253 52.6334C24.9899 52.7214 24.9379 52.8015 24.8722 52.8691L24.872 52.8693C24.7395 53.005 24.5597 53.0817 24.3715 53.0817C24.1834 53.0817 24.0036 53.005 23.8711 52.8693L23.8697 52.8679L23.8697 52.8679L18.5035 47.1575L13.1283 52.8616C13.0627 52.9315 12.9841 52.9873 12.8969 53.0256C12.8097 53.0639 12.7159 53.0839 12.621 53.0843C12.6209 53.0843 12.6209 53.0843 12.6208 53.0843L12.6204 52.9843C12.4616 52.9853 12.3088 52.9223 12.1945 52.8088L34.7929 22.3092ZM34.7929 22.3092H34.7903H2.21985C2.03099 22.3092 1.8505 22.3865 1.71789 22.5231C1.58538 22.6596 1.51145 22.8441 1.51145 23.0359V45.9681C1.51145 46.1599 1.58538 46.3444 1.71789 46.4809C1.8505 46.6175 2.03099 46.6948 2.21985 46.6948H16.9792L34.7929 22.3092ZM34.0819 45.2413H2.92824V23.7626H34.0819V45.2413Z" fill="#274F51" stroke="#274F51" stroke-width="0.2"/>
<path d="M45.6831 23.8602C45.5581 23.8023 45.4193 23.7828 45.2836 23.8042C45.1479 23.8257 45.0215 23.8871 44.9195 23.9806L36.3443 31.8146L36.3441 31.8148L44.987 24.0543C45.0747 23.9739 45.1832 23.9214 45.2992 23.903C45.4153 23.8847 45.534 23.9013 45.6411 23.9509C45.7483 24.0006 45.8392 24.0811 45.9029 24.1829C45.9666 24.2847 46.0004 24.4033 46 24.5244M45.6831 23.8602L45.6411 23.9509L45.6831 23.8602C45.6831 23.8602 45.6831 23.8602 45.6831 23.8602ZM45.6831 23.8602C45.8082 23.9181 45.9139 24.0119 45.9877 24.1298C46.0615 24.2477 46.1004 24.3847 46.1 24.5244M46.1 24.5244H46M46.1 24.5244L46.1 24.5246M46.1 24.5244C46.1 24.5245 46.1 24.5246 46.1 24.5246M46 24.5244V44.4576L46.1 44.4573M46 24.5244L46.1 24.5246M46.1 24.5246V44.4573M46.1 44.4573L46.1 44.4576M46.1 44.4573C46.1 44.4574 46.1 44.4575 46.1 44.4576M46.1 44.4576C46.1004 44.5973 46.0615 44.7343 45.9877 44.8521C45.9139 44.97 45.8082 45.0639 45.6831 45.1218L45.6824 45.1221C45.5908 45.1637 45.4916 45.1849 45.3913 45.1843M46.1 44.4576L45.3913 45.1843M45.3913 45.1843C45.2173 45.1848 45.0495 45.1195 44.9198 45.0017L44.9196 45.0015L36.3443 37.1673L36.3441 37.1672C36.2697 37.099 36.2104 37.0155 36.1698 36.9224C36.1291 36.8294 36.1081 36.7286 36.1079 36.6267L36.1079 36.6266L36.1079 32.3587V32.3585H36.2079L45.3913 45.1843ZM45.3913 45.1843C45.3912 45.1843 45.3911 45.1843 45.391 45.1843L45.3916 45.0843L45.392 45.1843C45.3918 45.1843 45.3915 45.1843 45.3913 45.1843ZM37.5247 32.6909L44.6832 26.1458V42.8551L37.5247 36.313V32.6909Z" fill="#274F51" stroke="#274F51" stroke-width="0.2"/>
<path d="M26.0843 0.900001L26.0842 0.9C24.0997 0.899374 22.1599 1.50506 20.5101 2.64008C18.8603 3.77508 17.5748 5.38829 16.8157 7.27532C16.0566 9.16232 15.8579 11.2387 16.2446 13.2419C16.6312 15.2451 17.586 17.0856 18.9885 18.5304C20.3911 19.9752 22.1785 20.9595 24.1248 21.3581C26.0711 21.7568 28.0884 21.5518 29.9215 20.7693C31.7545 19.9869 33.3206 18.6621 34.422 16.9632C35.5234 15.2644 36.1108 13.2675 36.1101 11.2251V11.225C36.1069 8.48863 35.0503 5.86469 33.1711 3.92889C31.2918 1.99298 28.7433 0.903352 26.0843 0.900001ZM26.0841 20.1C24.3813 20.1005 22.7163 19.581 21.2998 18.6066C19.8831 17.6321 18.7784 16.2464 18.1257 14.6245C17.473 13.0025 17.3019 11.2174 17.6341 9.4951C17.9663 7.77279 18.7868 6.19104 19.9913 4.94974C21.1959 3.70848 22.7303 2.86343 24.4004 2.52097C26.0705 2.17852 27.8017 2.35394 29.3752 3.02518C30.9487 3.69643 32.2942 4.83352 33.241 6.2931C34.1878 7.75269 34.6933 9.46905 34.6934 11.2251C34.6918 13.5787 33.7836 15.835 32.1691 17.4987C30.5548 19.1623 28.3662 20.0975 26.0841 20.1Z" fill="#274F51" stroke="#274F51" stroke-width="0.2"/>
<path d="M8.23674 21.5533H8.23683C9.68933 21.554 11.1091 21.1108 12.3166 20.2803C13.5241 19.4499 14.465 18.2695 15.0206 16.8888C15.5763 15.5082 15.7219 13.989 15.4393 12.5232C15.1566 11.0574 14.4583 9.71054 13.4321 8.65302C12.406 7.59546 11.098 6.87481 9.67356 6.58269C8.24908 6.29056 6.77252 6.4402 5.43079 7.01255C4.08908 7.58488 2.94276 8.55404 2.13646 9.79697C1.33018 11.0399 0.9 12.5009 0.9 13.9952L0.9 13.9953C0.901631 15.9978 1.67434 17.9185 3.04946 19.3356C4.42468 20.7529 6.29016 21.5508 8.23674 21.5533ZM8.23696 7.89371C9.40801 7.89311 10.5532 8.2503 11.5276 8.92047C12.5021 9.59067 13.2622 10.5439 13.7112 11.6598C14.1602 12.7758 14.2779 14.0041 14.0493 15.1891C13.8206 16.3742 13.2559 17.4623 12.4271 18.3161C11.5984 19.1698 10.5428 19.7508 9.39416 19.986C8.2455 20.2212 7.05489 20.1002 5.97283 19.6381C4.89073 19.1761 3.96549 18.3936 3.31452 17.3891C2.66353 16.3847 2.3162 15.2036 2.31679 13.9953C2.31919 12.3769 2.94438 10.826 4.05445 9.68249C5.16442 8.53907 6.66854 7.89617 8.23696 7.89371Z" fill="#274F51" stroke="#274F51" stroke-width="0.2"/>
<path d="M8.23687 16.5929C8.73864 16.5929 9.22888 16.4396 9.64559 16.1527C10.0623 15.8659 10.3866 15.4586 10.578 14.9826C10.7694 14.5066 10.8194 13.983 10.7219 13.4779C10.6243 12.9728 10.3835 12.5084 10.0294 12.1436C9.6753 11.7788 9.22375 11.53 8.73171 11.4292C8.23965 11.3284 7.72965 11.3802 7.26633 11.5779C6.80305 11.7755 6.40756 12.1101 6.12952 12.5387C5.8515 12.9674 5.70328 13.471 5.70328 13.9859C5.70328 14.6764 5.96952 15.3391 6.44431 15.8283C6.91921 16.3175 7.56394 16.5929 8.23687 16.5929ZM8.23687 12.8544C8.45708 12.8544 8.67259 12.9217 8.85618 13.048C9.03981 13.1744 9.18337 13.3544 9.26826 13.5655C9.35315 13.7766 9.37541 14.0091 9.33209 14.2334C9.28878 14.4578 9.18194 14.6634 9.02552 14.8246C8.86913 14.9857 8.67024 15.095 8.45418 15.1393C8.23814 15.1836 8.01417 15.1609 7.81047 15.0739C7.60673 14.987 7.43211 14.8396 7.30904 14.6498C7.18595 14.4601 7.12008 14.2367 7.12008 14.0079C7.12008 13.701 7.23844 13.4073 7.44822 13.1912C7.6579 12.9752 7.94165 12.8544 8.23687 12.8544Z" fill="#274F51" stroke="#274F51" stroke-width="0.2"/>
<path d="M26.0842 8.63071C25.5824 8.63071 25.0921 8.784 24.6754 9.07083C24.2588 9.35764 23.9344 9.76497 23.743 10.241C23.5516 10.717 23.5016 11.2406 23.5991 11.7457C23.6967 12.2508 23.9375 12.7152 24.2916 13.08C24.6457 13.4448 25.0973 13.6935 25.5893 13.7944C26.0814 13.8952 26.5914 13.8434 27.0547 13.6457C27.518 13.448 27.9135 13.1135 28.1915 12.6848C28.4695 12.2562 28.6177 11.7526 28.6177 11.2376C28.6177 10.5472 28.3515 9.88443 27.8767 9.39532C27.4018 8.90612 26.7571 8.63071 26.0842 8.63071ZM26.0842 12.3692C25.864 12.3692 25.6484 12.3019 25.4648 12.1756C25.2812 12.0492 25.1377 11.8692 25.0528 11.6581C24.9679 11.4469 24.9456 11.2145 24.9889 10.9901C25.0322 10.7658 25.1391 10.5602 25.2955 10.399C25.4519 10.2379 25.6508 10.1286 25.8668 10.0843C26.0829 10.04 26.3069 10.0627 26.5106 10.1496C26.7143 10.2366 26.8889 10.384 27.012 10.5737C27.1351 10.7635 27.201 10.9869 27.201 11.2157C27.201 11.5226 27.0826 11.8163 26.8728 12.0324C26.6631 12.2484 26.3794 12.3692 26.0842 12.3692Z" fill="#274F51" stroke="#274F51" stroke-width="0.2"/>
</svg>
