<svg xmlns="http://www.w3.org/2000/svg" viewBox="0 0 44.27 43.64"><defs><style>.cls-1{fill:#cbcbcb;}</style></defs><title>Asset 2</title><g id="Layer_2" data-name="Layer 2"><g id="Layer_1-2" data-name="Layer 1"><g id="Group_81" data-name="Group 81"><path id="Path_125" data-name="Path 125" class="cls-1" d="M33.16,39.21a1.39,1.39,0,0,1-1.84-.74v0a1.35,1.35,0,0,1,.82-1.72l.11,0a8.81,8.81,0,0,0,5.21-4.8A1.36,1.36,0,0,1,38.7,31a1.3,1.3,0,0,1,1.2.71,1.37,1.37,0,0,1,.16.63,1.6,1.6,0,0,1-.16.65A11.59,11.59,0,0,1,33.16,39.21Z"/><path id="Path_126" data-name="Path 126" class="cls-1" d="M40.17,16.56l1.64-1.63a4.36,4.36,0,0,0,.25-6.15A4.4,4.4,0,0,0,40,7.52c-.26-.08-.3-.2-.25-.42a3.14,3.14,0,0,0-.05-1.33,4.38,4.38,0,0,0-5.18-3.42,4.7,4.7,0,0,0-1,.34c-.15.08-.27.18-.39-.09A4.4,4.4,0,0,0,27.25.38a4.52,4.52,0,0,0-1.46,1.07c-3.58,3.68-7.25,7.27-10.87,10.9-.11.1-.19.26-.4.29.33-1.4.69-2.77,1-4.15A9.51,9.51,0,0,0,16,5.32a4.73,4.73,0,0,0-9.27-.79c-.23.87-.41,1.76-.65,2.63A56.65,56.65,0,0,1,1.7,18.25,16.42,16.42,0,0,0,19,41.75a16.13,16.13,0,0,0,9.31-4.84c2.34-2.36,4.71-4.71,7.06-7.06l6.16-6.14a4.35,4.35,0,0,0,.15-6.14,4.5,4.5,0,0,0-1.46-1Zm-.51,5.18C38.46,23,37.23,24.16,36,25.38l-9.73,9.71a13.76,13.76,0,0,1-23.5-7.72,7.37,7.37,0,0,1-.12-1.63A14.26,14.26,0,0,1,4.29,19a53,53,0,0,0,5-13.57,2.07,2.07,0,0,1,4-.31,2.29,2.29,0,0,1,0,1.27c-.83,3.43-1.66,6.85-2.49,10.29a1.36,1.36,0,0,0,.63,1.55A1.29,1.29,0,0,0,13,18.05c.11-.1.2-.21.31-.31L27.73,3.31a1.77,1.77,0,0,1,1.44-.64,1.63,1.63,0,0,1,1.47,1.09,1.55,1.55,0,0,1-.39,1.78q-2.58,2.6-5.17,5.17l-3.91,3.91A1.35,1.35,0,0,0,20.79,16a1.29,1.29,0,0,0,1,.94,1.35,1.35,0,0,0,1.28-.46l6-6c1.68-1.68,3.37-3.36,5.05-5A1.62,1.62,0,0,1,35.88,5,1.64,1.64,0,0,1,37,6.5,1.71,1.71,0,0,1,36.44,8L30,14.33,25.5,18.84a1.35,1.35,0,0,0-.22,1.89l.09.1a1.39,1.39,0,0,0,1.95,0l.07-.08,10.14-10.1a1.69,1.69,0,1,1,2.55,2.22L40,13c-1.45,1.47-2.92,2.91-4.38,4.36l-7,7a1.35,1.35,0,0,0,1.66,2.13,1.48,1.48,0,0,0,.25-.25l6.67-6.66A1.71,1.71,0,0,1,39,19a1.65,1.65,0,0,1,1.06,2.07,1.59,1.59,0,0,1-.42.67Z"/><path id="Path_127" data-name="Path 127" class="cls-1" d="M44.27,35.22c-.31.58-.6,1.18-.94,1.75a14.86,14.86,0,0,1-7.8,6.55,1.34,1.34,0,0,1-1.43-2.23,2.49,2.49,0,0,1,.69-.35,12.31,12.31,0,0,0,6.78-6.35c.27-.58.57-1.06,1.28-1.11a1.41,1.41,0,0,1,1.42,1c-.18,0-.19-.14-.26-.24a1.22,1.22,0,0,0-1.68-.44,1.19,1.19,0,0,0-.5.54c-.29.52-.52,1.09-.84,1.6a12.54,12.54,0,0,1-5.89,5l-.6.24a1.22,1.22,0,0,0-.65,1.6,1.24,1.24,0,0,0,1.49.69A8.91,8.91,0,0,0,37,42.79a15.24,15.24,0,0,0,4.3-3.22,14.66,14.66,0,0,0,2.6-3.85C44,35.53,44,35.26,44.27,35.22Z"/><path id="Path_128" data-name="Path 128" class="cls-1" d="M44.27,34.44v.78c-.31.58-.6,1.18-.94,1.75a14.86,14.86,0,0,1-7.8,6.55,1.34,1.34,0,0,1-1.43-2.23,2.49,2.49,0,0,1,.69-.35,12.31,12.31,0,0,0,6.78-6.35c.27-.58.57-1.06,1.28-1.11A1.43,1.43,0,0,1,44.27,34.44Z"/><path id="Path_129" data-name="Path 129" class="cls-1" d="M40.17,16.56l1.64-1.63a4.36,4.36,0,0,0,.25-6.15A4.4,4.4,0,0,0,40,7.52c-.26-.08-.3-.2-.25-.42a3.14,3.14,0,0,0-.05-1.33,4.38,4.38,0,0,0-5.18-3.42,4.7,4.7,0,0,0-1,.34c-.15.08-.27.18-.39-.09A4.4,4.4,0,0,0,27.25.38a4.52,4.52,0,0,0-1.46,1.07c-3.58,3.68-7.25,7.27-10.87,10.9-.11.1-.19.26-.4.29.33-1.4.69-2.77,1-4.15A9.51,9.51,0,0,0,16,5.32a4.73,4.73,0,0,0-9.27-.79c-.23.87-.41,1.76-.65,2.63A56.65,56.65,0,0,1,1.7,18.25,16.42,16.42,0,0,0,19,41.75a16.13,16.13,0,0,0,9.31-4.84c2.34-2.36,4.71-4.71,7.06-7.06l6.16-6.14a4.35,4.35,0,0,0,.15-6.14,4.5,4.5,0,0,0-1.46-1Zm-.51,5.18C38.46,23,37.23,24.16,36,25.38l-9.73,9.71a13.76,13.76,0,0,1-23.5-7.72,7.37,7.37,0,0,1-.12-1.63A14.26,14.26,0,0,1,4.29,19a53,53,0,0,0,5-13.57,2.07,2.07,0,0,1,4-.31,2.29,2.29,0,0,1,0,1.27c-.83,3.43-1.66,6.85-2.49,10.29a1.36,1.36,0,0,0,.63,1.55A1.29,1.29,0,0,0,13,18.05c.11-.1.2-.21.31-.31L27.73,3.31a1.77,1.77,0,0,1,1.44-.64,1.63,1.63,0,0,1,1.47,1.09,1.55,1.55,0,0,1-.39,1.78q-2.58,2.6-5.17,5.17l-3.91,3.91A1.35,1.35,0,0,0,20.79,16a1.29,1.29,0,0,0,1,.94,1.35,1.35,0,0,0,1.28-.46l6-6c1.68-1.68,3.37-3.36,5.05-5A1.62,1.62,0,0,1,35.88,5,1.64,1.64,0,0,1,37,6.5,1.71,1.71,0,0,1,36.44,8L30,14.33,25.5,18.84a1.35,1.35,0,0,0-.22,1.89l.09.1a1.39,1.39,0,0,0,1.95,0l.07-.08,10.14-10.1a1.69,1.69,0,1,1,2.55,2.22L40,13c-1.45,1.47-2.92,2.91-4.38,4.36l-7,7a1.35,1.35,0,0,0,1.66,2.13,1.48,1.48,0,0,0,.25-.25l6.67-6.66A1.71,1.71,0,0,1,39,19a1.65,1.65,0,0,1,1.06,2.07,1.59,1.59,0,0,1-.42.67Z"/><path id="Path_130" data-name="Path 130" class="cls-1" d="M40.06,32.33a1.6,1.6,0,0,1-.16.65,11.56,11.56,0,0,1-6.74,6.23,1.4,1.4,0,0,1-1.84-.74v0a1.36,1.36,0,0,1,.82-1.73l.11,0a8.84,8.84,0,0,0,5.21-4.8A1.36,1.36,0,0,1,38.7,31a1.29,1.29,0,0,1,1.2.7A1.44,1.44,0,0,1,40.06,32.33Z"/></g></g></g></svg>