<svg xmlns="http://www.w3.org/2000/svg" viewBox="0 0 27.25 34.04"><defs><style>.cls-1{fill:none;stroke:gray;stroke-linecap:round;stroke-linejoin:round;stroke-width:2px;}</style></defs><title>Asset 7</title><g id="Layer_2" data-name="Layer 2"><g id="Layer_1-2" data-name="Layer 1"><g id="Iconly_Light_Profile" data-name="Iconly Light Profile"><g id="Profile"><circle id="Ellipse_736" data-name="Ellipse 736" class="cls-1" cx="13.63" cy="8.96" r="7.96"/><path id="Path_33945" data-name="Path 33945" class="cls-1" d="M1,28a3.59,3.59,0,0,1,.37-1.61c.76-1.53,2.91-2.34,4.7-2.7a26.92,26.92,0,0,1,3.9-.55,40.56,40.56,0,0,1,7.31,0,28.58,28.58,0,0,1,3.9.54c1.79.37,3.94,1.1,4.7,2.7a3.78,3.78,0,0,1,0,3.25c-.76,1.6-2.91,2.34-4.7,2.69a26.94,26.94,0,0,1-3.9.56,43.78,43.78,0,0,1-6,.1,6.87,6.87,0,0,1-1.36-.1,24.31,24.31,0,0,1-3.89-.56c-1.8-.35-3.94-1.08-4.71-2.69A3.67,3.67,0,0,1,1,28Z"/></g></g></g></g></svg>