<svg xmlns="http://www.w3.org/2000/svg" viewBox="0 0 31.65 34.04"><defs><style>.cls-1{fill:none;stroke:gray;stroke-linecap:round;stroke-linejoin:round;stroke-width:2px;}</style></defs><title>Asset 8</title><g id="Layer_2" data-name="Layer 2"><g id="Layer_1-2" data-name="Layer 1"><g id="Iconly_Light_Setting" data-name="Iconly Light Setting"><g id="Setting"><path id="Path_33946" data-name="Path 33946" class="cls-1" d="M30.21,9.91l-1-1.8a3.2,3.2,0,0,0-4.35-1.18h0a3.18,3.18,0,0,1-4.35-1.12h0a3.18,3.18,0,0,1-.43-1.53h0A3.19,3.19,0,0,0,17,1H14.78A3.17,3.17,0,0,0,11.6,4.17v0h0A3.18,3.18,0,0,1,8.41,7.33,3,3,0,0,1,6.89,6.9h0A3.19,3.19,0,0,0,2.54,8.08L1.43,9.91a3.19,3.19,0,0,0,1.16,4.35h0a3.19,3.19,0,0,1,0,5.52h0a3.16,3.16,0,0,0-1.16,4.33h0l1.05,1.82a3.18,3.18,0,0,0,4.33,1.24h0a3.16,3.16,0,0,1,4.32,1.14v0a3.15,3.15,0,0,1,.43,1.53h0A3.19,3.19,0,0,0,14.78,33h2.09a3.18,3.18,0,0,0,3.18-3.18h0a3.19,3.19,0,0,1,3.16-3.19h0a3.41,3.41,0,0,1,1.53.43h0a3.19,3.19,0,0,0,4.35-1.16h0l1.1-1.83a3.18,3.18,0,0,0-1.15-4.34h0a3.16,3.16,0,0,1-1.17-4.33h0a2.94,2.94,0,0,1,1.16-1.16h0a3.2,3.2,0,0,0,1.16-4.34h0Z"/><circle id="Ellipse_737" data-name="Ellipse 737" class="cls-1" cx="15.83" cy="17.02" r="4.39"/></g></g></g></g></svg>