<svg xmlns="http://www.w3.org/2000/svg" viewBox="0 0 35.34 35.33"><defs><style>.cls-1{fill:none;stroke-linecap:round;stroke-linejoin:round;stroke-width:2px;}.cls-1,.cls-2{stroke:gray;}.cls-2{fill:gray;stroke-miterlimit:10;}</style></defs><title>Asset 4</title><g id="Layer_2" data-name="Layer 2"><g id="Layer_1-2" data-name="Layer 1"><path id="Stroke_7-2" data-name="Stroke 7-2" class="cls-1" d="M17.7,1A16.67,16.67,0,0,0,1,17.65v0A17.64,17.64,0,0,0,3.25,26a1.76,1.76,0,0,1,.12,1.5L2.25,31.26a1,1,0,0,0,1.37,1.3l3.36-1a2.87,2.87,0,0,1,2.49.6A16.66,16.66,0,1,0,17.7,1Z"/><path id="Combined_Shape" data-name="Combined Shape" class="cls-2" d="M23.69,18A1.95,1.95,0,1,1,25.64,20,1.95,1.95,0,0,1,23.69,18Zm-7.57,0A1.95,1.95,0,1,1,18.06,20,1.95,1.95,0,0,1,16.12,18ZM8.55,18A1.95,1.95,0,1,1,10.49,20h0A2,2,0,0,1,8.55,18Z"/></g></g></svg>