<svg xmlns="http://www.w3.org/2000/svg" viewBox="0 0 36.18 27.76"><defs><style>.cls-1{fill:none;stroke:gray;stroke-linecap:round;stroke-linejoin:round;stroke-width:2px;}</style></defs><title>Asset 6</title><g id="Layer_2" data-name="Layer 2"><g id="Layer_1-2" data-name="Layer 1"><g id="Iconly_Light_3_User" data-name="Iconly Light 3 User"><g id="_3_User" data-name=" 3 User"><path id="Stroke_1-4" data-name="Stroke 1-4" class="cls-1" d="M27.51,12.24a4.84,4.84,0,1,0,0-9.67"/><path id="Stroke_3-3" data-name="Stroke 3-3" class="cls-1" d="M29.74,17.5a14.71,14.71,0,0,1,2.37.34c1.08.21,2.39.66,2.85,1.63a2.27,2.27,0,0,1,0,2c-.46,1-1.77,1.42-2.85,1.64"/><path id="Stroke_5-2" data-name="Stroke 5-2" class="cls-1" d="M8.67,12.24a4.84,4.84,0,0,1,0-9.67"/><path id="Stroke_7-3" data-name="Stroke 7-3" class="cls-1" d="M6.45,17.5a14.55,14.55,0,0,0-2.37.34c-1.09.21-2.39.66-2.86,1.63a2.34,2.34,0,0,0,0,2c.46,1,1.77,1.42,2.86,1.64"/><path id="Stroke_9" data-name="Stroke 9" class="cls-1" d="M18.08,18.54c5.41,0,10,.82,10,4.1s-4.59,4.12-10,4.12-10-.82-10-4.1S12.64,18.54,18.08,18.54Z"/><path id="Stroke_11" data-name="Stroke 11" class="cls-1" d="M18.08,13.86a6.43,6.43,0,1,1,6.43-6.43h0a6.4,6.4,0,0,1-6.38,6.43Z"/></g></g></g></g></svg>