<svg xmlns="http://www.w3.org/2000/svg" viewBox="0 0 35.33 35.33"><defs><style>.cls-1{fill:none;stroke:gray;stroke-linecap:round;stroke-linejoin:round;stroke-width:2px;}</style></defs><title>Asset 5</title><g id="Layer_2" data-name="Layer 2"><g id="Layer_1-2" data-name="Layer 1"><g id="Iconly_Light_Category" data-name="Iconly Light Category"><g id="Category"><path id="Stroke_1-3" data-name="Stroke 1-3" class="cls-1" d="M24.81,1h5.44a4.09,4.09,0,0,1,4.08,4.12v5.49a4.09,4.09,0,0,1-4.08,4.11H24.81a4.1,4.1,0,0,1-4.08-4.11V5.12A4.1,4.1,0,0,1,24.81,1Z"/><path id="Stroke_3-2" data-name="Stroke 3-2" class="cls-1" d="M5.08,1h5.44a4.1,4.1,0,0,1,4.09,4.12v5.49a4.1,4.1,0,0,1-4.09,4.11H5.08A4.1,4.1,0,0,1,1,10.61V5.12A4.1,4.1,0,0,1,5.08,1Z"/><path id="Stroke_5" data-name="Stroke 5" class="cls-1" d="M5.08,20.61h5.44a4.1,4.1,0,0,1,4.09,4.12h0v5.49a4.1,4.1,0,0,1-4.09,4.11H5.08A4.1,4.1,0,0,1,1,30.22V24.73a4.1,4.1,0,0,1,4.08-4.12Z"/><path id="Stroke_7" data-name="Stroke 7" class="cls-1" d="M24.81,20.61h5.44a4.1,4.1,0,0,1,4.08,4.12v5.49a4.09,4.09,0,0,1-4.08,4.11H24.81a4.1,4.1,0,0,1-4.08-4.11V24.73a4.09,4.09,0,0,1,4.08-4.12Z"/></g></g></g></g></svg>