<svg width="52" height="45" viewBox="0 0 52 45" fill="none" xmlns="http://www.w3.org/2000/svg">
<path d="M4.04992 13.9387C3.32054 14.7919 4.42284 16.0939 5.15575 15.2477C5.8816 14.3665 4.79185 13.1248 4.04992 13.9387Z" fill="#274F51" stroke="white" stroke-width="0.2"/>
<path d="M8.03436 15.5222C9.09163 15.5033 9.09123 13.6924 8.03436 13.674C6.97911 13.6966 6.97911 15.4991 8.03436 15.5222Z" fill="#274F51" stroke="white" stroke-width="0.2"/>
<path d="M11.3422 15.5214C12.8241 15.4448 12.3717 13.2449 10.9758 13.7489C10.0376 14.0914 10.3442 15.5611 11.3422 15.5214Z" fill="#274F51" stroke="white" stroke-width="0.2"/>
<path d="M12.1277 18.6907H7.11092C6.4459 18.6915 5.80833 18.9649 5.33808 19.4509C4.86784 19.9369 4.60331 20.5958 4.60254 21.2831V25.6038C4.60331 26.2911 4.86784 26.95 5.33808 27.436C5.80833 27.922 6.4459 28.1954 7.11092 28.1962H12.1277C12.7927 28.1954 13.4303 27.922 13.9005 27.436C14.3708 26.95 14.6353 26.2911 14.6361 25.6038V21.2831C14.6354 20.5958 14.3709 19.9368 13.9007 19.4508C13.4304 18.9648 12.7928 18.6914 12.1277 18.6907ZM12.9638 25.6038C12.9638 25.833 12.8757 26.0528 12.7189 26.2148C12.5621 26.3769 12.3494 26.4679 12.1277 26.4679H7.11092C6.88917 26.4679 6.6765 26.3769 6.51969 26.2148C6.36289 26.0528 6.2748 25.833 6.2748 25.6038V21.2831C6.2748 21.0539 6.36289 20.8342 6.51969 20.6721C6.6765 20.51 6.88917 20.419 7.11092 20.419H12.1277C12.3494 20.419 12.5621 20.51 12.7189 20.6721C12.8757 20.8342 12.9638 21.0539 12.9638 21.2831V25.6038Z" fill="#274F51" stroke="white" stroke-width="0.2"/>
<path d="M12.216 30.5726H5.4377C4.32606 30.592 4.32225 32.4005 5.4377 32.4209H12.216C13.3281 32.4014 13.3328 30.5924 12.216 30.5726Z" fill="#274F51" stroke="white" stroke-width="0.2"/>
<path d="M8.79043 34.005H5.43063C4.32735 34.0244 4.32567 35.833 5.43063 35.8533H8.79043C9.89371 35.8334 9.89749 34.0249 8.79043 34.005Z" fill="#274F51" stroke="white" stroke-width="0.2"/>
<path d="M39.542 2.99162C37.0332 -1.21918 30.6376 1.87364 32.3961 6.45597L29.5463 10.3343H3.76704C2.86846 10.3352 2.00695 10.6934 1.37157 11.3302C0.73618 11.967 0.378827 12.8305 0.37793 13.7311V40.9058C0.378827 41.8064 0.73618 42.6699 1.37157 43.3067C2.00695 43.9436 2.86846 44.3017 3.76704 44.3026H39.3526C40.2512 44.3017 41.1127 43.9436 41.7481 43.3067C42.3835 42.6699 42.7409 41.8064 42.7418 40.9058V25.2239L43.1789 25.1751C45.0824 27.7511 49.3971 26.8539 50.144 23.7369C50.2808 23.2301 50.316 22.7011 50.2477 22.1805C50.1793 21.6599 50.0087 21.1581 49.7458 20.704L39.542 2.99162ZM41.0472 40.9058C41.0466 41.3561 40.8679 41.7878 40.5503 42.1061C40.2326 42.4245 39.8019 42.6037 39.3526 42.6042H3.76704C3.31778 42.6037 2.88709 42.4245 2.56942 42.1061C2.25175 41.7878 2.07304 41.3561 2.07248 40.9058V40.0566H41.0472V40.9058ZM41.0472 38.3582H2.07248V13.7311C2.07304 13.2809 2.25175 12.8492 2.56942 12.5308C2.88709 12.2124 3.31778 12.0333 3.76704 12.0327H28.2982L25.4726 15.8784C25.1874 16.2676 24.9935 16.7163 24.9055 17.1911C24.8175 17.6659 24.8375 18.1545 24.9642 18.6205L20.1648 21.3982C16.0131 23.9233 18.9617 30.182 23.5115 28.611L29.3853 35.1282C29.6823 35.4554 30.0444 35.7167 30.4482 35.8951C30.8521 36.0736 31.2888 36.1652 31.7301 36.1642C34.3868 36.233 35.8966 32.8307 34.0601 30.8953L29.7729 26.1398C30.3282 26.4266 30.9555 26.5429 31.5763 26.4744L41.0476 25.4128L41.0472 38.3582ZM23.3048 26.8514C20.6473 28.2951 18.433 24.4558 21.0121 22.8716L25.7145 20.1499L28.0072 24.1288L23.3048 26.8514ZM32.8015 32.0345C34.0508 33.4901 31.9686 35.3809 30.641 33.9877L25.0582 27.7932L27.6374 26.3024L32.8015 32.0345ZM31.3874 24.7857C31.0959 24.8204 30.8007 24.768 30.5387 24.6352C30.2768 24.5025 30.0597 24.2951 29.9148 24.0392L28.33 21.2882L26.76 18.5636C26.606 18.3075 26.5312 18.0115 26.5448 17.7129C26.5584 17.4143 26.66 17.1264 26.8367 16.8855L33.2845 8.1115C35.5047 11.9656 39.9729 19.7223 42.1923 23.576L31.3874 24.7857ZM48.507 23.2996C48.0495 25.2307 45.251 25.6128 44.3075 23.8516L34.1046 6.13751C32.66 3.49308 36.4821 1.24565 38.0745 3.8404L48.2783 21.5532C48.4296 21.8143 48.5278 22.1029 48.5672 22.4023C48.6065 22.7017 48.5862 23.006 48.5075 23.2975L48.507 23.2996Z" fill="#274F51" stroke="white" stroke-width="0.2"/>
<path d="M45.9085 11.1501C46.0229 11.3391 46.2114 11.4771 46.4324 11.5336C46.6534 11.5901 46.8888 11.5605 47.087 11.4513L49.8553 9.92642C50.0518 9.81649 50.1948 9.63684 50.253 9.42669C50.3112 9.21654 50.28 8.99295 50.1661 8.8047C50.0522 8.61645 49.8649 8.47884 49.645 8.42189C49.4252 8.36493 49.1906 8.39327 48.9926 8.5007L46.2243 10.0256C46.0261 10.1348 45.8816 10.3146 45.8224 10.5254C45.7632 10.7363 45.7941 10.961 45.9085 11.1501Z" fill="#274F51" stroke="white" stroke-width="0.2"/>
<path d="M43.564 8.54164C43.6576 8.59829 43.761 8.63506 43.8681 8.64987C43.9753 8.66467 44.0842 8.65722 44.1887 8.62793C44.2931 8.59864 44.391 8.5481 44.4767 8.47918C44.5625 8.41026 44.6345 8.32432 44.6885 8.22628L46.2109 5.46123C46.2649 5.36321 46.2999 5.25501 46.314 5.1428C46.3281 5.03059 46.321 4.91657 46.293 4.80725C46.265 4.69793 46.2167 4.59546 46.1509 4.50568C46.0851 4.4159 46.0031 4.34057 45.9095 4.28399C45.8159 4.22742 45.7125 4.1907 45.6054 4.17594C45.4982 4.16118 45.3893 4.16867 45.2849 4.19797C45.1805 4.22727 45.0826 4.27782 44.9969 4.34673C44.9112 4.41564 44.8392 4.50155 44.7852 4.59957L43.2628 7.36462C43.1537 7.56253 43.1241 7.79772 43.1806 8.01845C43.2371 8.23918 43.375 8.42738 43.564 8.54164Z" fill="#274F51" stroke="white" stroke-width="0.2"/>
<path d="M51.04 13.674H47.9383C46.839 13.6906 46.8373 15.2408 47.9383 15.2582H51.04C52.1393 15.2412 52.1431 13.691 51.04 13.674Z" fill="#274F51" stroke="white" stroke-width="0.2"/>
</svg>
