<svg width="84" height="84" viewBox="0 0 84 84" fill="none" xmlns="http://www.w3.org/2000/svg">
<circle cx="42" cy="42" r="42" fill="#F8F8F8"/>
<path d="M55.5342 31.4619C55.401 31.4397 55.2455 31.4397 55.1122 31.4619C52.0469 31.3508 49.6035 28.8408 49.6035 25.7311C49.6035 22.5547 52.1579 20.0002 55.3343 20.0002C58.5107 20.0002 61.0651 22.5769 61.0651 25.7311C61.0429 28.8408 58.5996 31.3508 55.5342 31.4619Z" stroke="#A7A7A7" stroke-width="2" stroke-linecap="round" stroke-linejoin="round"/>
<path d="M53.2473 47.633C56.2904 48.1439 59.6445 47.6108 61.999 46.0337C65.131 43.9457 65.131 40.525 61.999 38.437C59.6223 36.8599 56.2238 36.3268 53.1807 36.8599" stroke="#A7A7A7" stroke-width="2" stroke-linecap="round" stroke-linejoin="round"/>
<path d="M28.8131 31.4616C28.9464 31.4394 29.1019 31.4394 29.2352 31.4616C32.3005 31.3506 34.7439 28.8406 34.7439 25.7308C34.7439 22.5544 32.1894 20 29.0131 20C25.8367 20 23.2822 22.5767 23.2822 25.7308C23.3044 28.8406 25.7478 31.3506 28.8131 31.4616Z" stroke="#A7A7A7" stroke-width="2" stroke-linecap="round" stroke-linejoin="round"/>
<path d="M31.1007 47.6328C28.0576 48.1436 24.7035 47.6105 22.349 46.0334C19.217 43.9455 19.217 40.5248 22.349 38.4368C24.7257 36.8597 28.1242 36.3266 31.1673 36.8597" stroke="#A7A7A7" stroke-width="2" stroke-linecap="round" stroke-linejoin="round"/>
<path d="M42.2061 48.0549C42.0728 48.0327 41.9174 48.0327 41.7841 48.0549C38.7188 47.9438 36.2754 45.4338 36.2754 42.3241C36.2754 39.1477 38.8298 36.5933 42.0062 36.5933C45.1826 36.5933 47.737 39.1699 47.737 42.3241C47.7148 45.4338 45.2714 47.9661 42.2061 48.0549Z" stroke="#A7A7A7" stroke-width="2" stroke-linecap="round" stroke-linejoin="round"/>
<path d="M35.7415 55.052C32.6096 57.14 32.6096 60.5607 35.7415 62.6487C39.2955 65.0254 45.1152 65.0254 48.6692 62.6487C51.8012 60.5607 51.8012 57.14 48.6692 55.052C45.1374 52.6975 39.2955 52.6975 35.7415 55.052Z" stroke="#A7A7A7" stroke-width="2" stroke-linecap="round" stroke-linejoin="round"/>
</svg>
