<svg width="84" height="84" viewBox="0 0 84 84" fill="none" xmlns="http://www.w3.org/2000/svg">
<circle cx="42" cy="42" r="42" fill="#F8F8F8"/>
<path d="M37.5872 21.1801L24.2153 29.9096C19.9282 32.7083 19.9282 38.9723 24.2153 41.771L37.5872 50.5005C39.9861 52.0776 43.9399 52.0776 46.3389 50.5005L59.6442 41.771C63.909 38.9723 63.909 32.7305 59.6442 29.9318L46.3389 21.2023C43.9399 19.603 39.9861 19.603 37.5872 21.1801Z" stroke="#A7A7A7" stroke-width="2" stroke-linecap="round" stroke-linejoin="round"/>
<path d="M27.7712 44.6147L27.749 55.0324C27.749 57.8534 29.9258 60.8743 32.5913 61.7628L39.6771 64.1173C40.8988 64.5171 42.9202 64.5171 44.164 64.1173L51.2498 61.7628C53.9153 60.8743 56.0922 57.8534 56.0922 55.0324V44.7258" stroke="#A7A7A7" stroke-width="2" stroke-linecap="round" stroke-linejoin="round"/>
<path d="M62.8008 48.8795V35.552" stroke="#A7A7A7" stroke-width="2" stroke-linecap="round" stroke-linejoin="round"/>
</svg>
