<svg width="84" height="84" viewBox="0 0 84 84" fill="none" xmlns="http://www.w3.org/2000/svg">
<circle cx="42" cy="42" r="42" fill="#F8F8F8"/>
<path d="M45.8507 21.2325H47.0088C47.2648 21.2325 47.5103 21.1309 47.6913 20.9499C47.8722 20.7689 47.9739 20.5234 47.9739 20.2674C47.9739 20.0115 47.8722 19.766 47.6913 19.585C47.5103 19.404 47.2648 19.3024 47.0088 19.3024H45.866C45.61 19.3003 45.3637 19.4001 45.1813 19.5796C44.9989 19.7592 44.8953 20.0039 44.8933 20.2598C44.8913 20.5158 44.991 20.7621 45.1706 20.9445C45.3501 21.1269 45.5948 21.2305 45.8507 21.2325ZM65.0001 66.0989C65.0001 66.3548 64.8984 66.6003 64.7174 66.7813C64.5364 66.9623 64.2909 67.064 64.035 67.064C63.779 67.064 63.5336 66.9623 63.3526 66.7813C63.1716 66.6003 63.0699 66.3548 63.0699 66.0989C63.056 63.2891 62.4367 60.5153 61.2543 57.9663C60.0719 55.4174 58.354 53.1532 56.2178 51.328C55.1562 52.7807 52.2609 55.5185 45.2463 56.3058V66.6271C45.2463 66.8831 45.1446 67.1286 44.9636 67.3095C44.7826 67.4905 44.5372 67.5922 44.2812 67.5922C44.0252 67.5922 43.7798 67.4905 43.5988 67.3095C43.4178 67.1286 43.3161 66.8831 43.3161 66.6271V55.3915C43.3153 55.1495 43.406 54.9162 43.5698 54.7382C43.7337 54.5602 43.9587 54.4507 44.1999 54.4315C51.3111 53.827 53.9168 51.1756 54.694 50.1038C53.8274 49.4939 52.9117 48.957 51.9562 48.4987C49.0089 50.1705 45.6785 51.0494 42.2901 51.0494C38.9017 51.0494 35.5712 50.1705 32.624 48.4987C31.6701 48.957 30.756 49.4939 29.8913 50.1038C30.6633 51.1756 33.2691 53.827 40.3853 54.4315C40.6261 54.4518 40.8504 54.5617 41.014 54.7395C41.1777 54.9172 41.2687 55.1499 41.2691 55.3915V66.5662C41.2691 66.8221 41.1674 67.0676 40.9864 67.2486C40.8055 67.4296 40.56 67.5312 40.304 67.5312C40.0481 67.5312 39.8026 67.4296 39.6216 67.2486C39.4406 67.0676 39.339 66.8221 39.339 66.5662V56.2855C32.3192 55.4982 29.429 52.7604 28.3623 51.3076C26.2243 53.1358 24.5055 55.4034 23.323 57.9559C22.1405 60.5084 21.5222 63.2858 21.5102 66.0989C21.5102 66.3548 21.4086 66.6003 21.2276 66.7813C21.0466 66.9623 20.8011 67.064 20.5452 67.064C20.2892 67.064 20.0437 66.9623 19.8628 66.7813C19.6818 66.6003 19.5801 66.3548 19.5801 66.0989C19.6082 61.133 21.3496 56.3291 24.51 52.4987C27.6705 48.6682 32.0562 46.0461 36.9262 45.0752V39.4574C35.3665 38.5298 34.0741 37.2132 33.1758 35.6364C32.2774 34.0596 31.8037 32.2766 31.8011 30.4618V15.7722C31.8025 14.6518 32.2481 13.5776 33.0404 12.7854C33.8326 11.9931 34.9068 11.5475 36.0272 11.5461H46.4349C46.6908 11.5407 46.9384 11.6372 47.1232 11.8144C47.308 11.9916 47.4149 12.2349 47.4203 12.4909C47.4257 12.7468 47.3291 12.9945 47.152 13.1793C46.9748 13.3641 46.7315 13.4709 46.4755 13.4763C47.5774 13.4816 48.6616 13.7547 49.6344 14.2721C50.6073 14.7896 51.4398 15.5358 52.0601 16.4466C52.6804 17.3573 53.07 18.4052 53.1953 19.5C53.3205 20.5948 53.1776 21.7037 52.779 22.731V30.4618C52.7753 32.2776 52.3001 34.0612 51.4 35.6381C50.4998 37.215 49.2054 38.5311 47.6438 39.4574V45.0752C49.2456 45.3917 50.8077 45.884 52.3016 46.5432C52.3355 46.5605 52.3678 46.5809 52.3981 46.6041C56.1385 48.3143 59.3121 51.058 61.5448 54.5119C63.7775 57.9659 64.9764 61.9861 65.0001 66.0989ZM46.4349 15.4014C42.4932 15.4014 39.6437 20.1049 43.2095 23.9246C43.8004 24.4462 44.509 24.8165 45.2745 25.0039C46.0401 25.1914 46.8397 25.1902 47.6047 25.0006C48.3697 24.811 49.0772 24.4386 49.6667 23.9154C50.2561 23.3921 50.7097 22.7337 50.9887 21.9966C51.2676 21.2594 51.3636 20.4656 51.2682 19.6833C51.1729 18.9009 50.8891 18.1533 50.4413 17.5048C49.9935 16.8562 49.395 16.326 48.6972 15.9596C47.9993 15.5933 47.223 15.4017 46.4349 15.4014ZM33.7364 23.6097H40.5326C39.9285 22.524 39.6268 21.2961 39.659 20.0541H33.7313L33.7364 23.6097ZM33.7364 15.7722V18.129H39.9891C40.4368 16.7934 41.2869 15.629 42.4229 14.7959C43.5588 13.9628 44.9248 13.5019 46.3333 13.4763H36.0272C35.4187 13.4776 34.8355 13.7199 34.4052 14.1502C33.9749 14.5805 33.7326 15.1637 33.7313 15.7722H33.7364ZM39.1053 38.3958C40.4036 38.9159 41.8094 39.1102 43.2001 38.9616C44.5907 38.8129 45.9238 38.326 47.0829 37.5433C48.2419 36.7606 49.1916 35.7059 49.849 34.4715C50.5063 33.237 50.8514 31.8604 50.8539 30.4618V25.5399H50.7523C49.5377 26.5441 48.0109 27.0935 46.4349 27.0935C44.8588 27.0935 43.3321 26.5441 42.1174 25.5399H33.7313V30.4618C33.7329 32.1689 34.245 33.8365 35.2017 35.2503C36.1584 36.6642 37.5161 37.7596 39.1002 38.3958H39.1053ZM38.8615 40.3717V44.9432H45.7288V40.3717C43.5011 41.1322 41.0841 41.1322 38.8564 40.3717H38.8615ZM49.6298 47.5794C46.6634 46.6092 46.318 46.853 37.9776 46.853C37.4697 46.9343 37.297 46.9698 36.9618 47.0359C36.4538 47.1425 35.9916 47.2594 35.3618 47.4473L34.9402 47.5794C37.2504 48.6114 39.7522 49.1448 42.2825 49.1448C44.8127 49.1448 47.3145 48.6114 49.6247 47.5794H49.6298Z" fill="#A7A7A7"/>
</svg>
