<svg width="53" height="46" viewBox="0 0 53 46" fill="none" xmlns="http://www.w3.org/2000/svg">
<path d="M49.1544 20.7296V40.6712H3.92279V10.8823C3.92279 10.4913 4.00111 10.1041 4.15326 9.74279C4.30541 9.38153 4.52843 9.05329 4.80958 8.77679C5.09072 8.50029 5.42449 8.28095 5.79182 8.13131C6.15915 7.98167 6.55284 7.90466 6.95044 7.90466H26.5346" stroke="#274F51" stroke-width="1.8" stroke-linecap="round" stroke-linejoin="round"/>
<path d="M1 40.6731H52.0782C52.0782 41.7004 51.6632 42.6857 50.9246 43.4121C50.1859 44.1385 49.1841 44.5466 48.1396 44.5466H4.93959C4.42228 44.5468 3.91002 44.4467 3.43205 44.2521C2.95408 44.0575 2.51978 43.7722 2.15394 43.4124C1.7881 43.0527 1.4979 42.6257 1.2999 42.1557C1.10191 41.6856 1 41.1819 1 40.6731V40.6731Z" stroke="#274F51" stroke-width="1.8" stroke-linecap="round" stroke-linejoin="round"/>
<path d="M22.1271 19.8981C22.5019 17.6174 20.9258 15.4697 18.6068 15.1012C16.2879 14.7326 14.1042 16.2826 13.7294 18.5633C13.3546 20.8439 14.9307 22.9916 17.2496 23.3601C19.5686 23.7287 21.7523 22.1787 22.1271 19.8981Z" stroke="#274F51" stroke-width="1.8" stroke-linecap="round" stroke-linejoin="round"/>
<path d="M19.6891 26.1196L17.5961 31.356L15.5022 26.1216C14.1119 26.1216 12.7785 26.6648 11.7954 27.6316C10.8123 28.5985 10.26 29.9099 10.26 31.2772V35.3628H24.9392V31.2772C24.9395 30.5993 24.8038 29.9281 24.54 29.3018C24.2762 28.6756 23.8894 28.1067 23.4017 27.6276C22.9141 27.1486 22.3351 26.7688 21.6981 26.51C21.061 26.2513 20.3783 26.1186 19.6891 26.1196Z" stroke="#274F51" stroke-width="1.8" stroke-linecap="round" stroke-linejoin="round"/>
<path d="M48.6391 1.45325H32.4623C31.6029 1.45325 30.7788 1.789 30.1711 2.38663C29.5634 2.98427 29.222 3.79483 29.222 4.64002V15.0223C29.222 15.8675 29.5634 16.6781 30.1711 17.2757C30.7788 17.8733 31.6029 18.2091 32.4623 18.2091V18.2091V24.2888L36.8045 18.2091H48.6371C49.4963 18.2088 50.3202 17.873 50.9277 17.2754C51.5351 16.6778 51.8764 15.8673 51.8764 15.0223V4.64002C51.8764 3.79534 51.5354 2.98522 50.9284 2.38767C50.3214 1.79012 49.4979 1.45402 48.6391 1.45325V1.45325Z" stroke="#274F51" stroke-width="1.8" stroke-linecap="round" stroke-linejoin="round"/>
<path d="M45.1495 9.8308L37.6017 5.54578V14.1168L45.1495 9.8308Z" stroke="#274F51" stroke-width="1.8" stroke-linecap="round" stroke-linejoin="round"/>
<path d="M30.2754 28.3356H44.9289" stroke="#274F51" stroke-width="1.8" stroke-linecap="round" stroke-linejoin="round"/>
<path d="M30.2754 31.8502H44.9289" stroke="#274F51" stroke-width="1.8" stroke-linecap="round" stroke-linejoin="round"/>
<path d="M30.2754 35.3657H44.9289" stroke="#274F51" stroke-width="1.8" stroke-linecap="round" stroke-linejoin="round"/>
</svg>
