<svg xmlns="http://www.w3.org/2000/svg" viewBox="0 0 163.11 65.45"><defs><style>.cls-1{fill:#fff;}.cls-2{fill:#ffa400;}.cls-3{fill:#d7282f;}.cls-4{fill:#3dae2b;}.cls-5{fill:#005cb9;}.cls-6{fill:#00a0df;}</style></defs><title>Asset 1</title><g id="Layer_2" data-name="Layer 2"><g id="Layer_1-2" data-name="Layer 1"><path class="cls-1" d="M3,63H1.16L.78,64H0l1.77-4.87h.62L4.16,64H3.38ZM2.8,62.3l-.71-2.13h0L1.37,62.3Z"/><path class="cls-1" d="M6.1,63.43a.91.91,0,0,0,.49-.12A.37.37,0,0,0,6.78,63a.29.29,0,0,0-.12-.26.54.54,0,0,0-.31-.08l-.61,0a1.18,1.18,0,0,1-.71-.3.85.85,0,0,1-.29-.69.91.91,0,0,1,.38-.8A1.47,1.47,0,0,1,6,60.53a2.72,2.72,0,0,1,.43,0,1.9,1.9,0,0,1,.36.09A2.24,2.24,0,0,1,7.4,61L7,61.51a2,2,0,0,0-.43-.24A1.6,1.6,0,0,0,6,61.19a.75.75,0,0,0-.46.11.39.39,0,0,0-.13.31.23.23,0,0,0,.1.2.61.61,0,0,0,.36.12l.57,0a1,1,0,0,1,.78.32,1.13,1.13,0,0,1,.23.72.93.93,0,0,1-.41.78,1.81,1.81,0,0,1-1,.28,2.17,2.17,0,0,1-1.53-.62L5,63A1.44,1.44,0,0,0,6.1,63.43Z"/><path class="cls-1" d="M9,62.57a.79.79,0,0,0,.83.86,1,1,0,0,0,.75-.34l.51.43a1.62,1.62,0,0,1-1.25.56A1.68,1.68,0,0,1,9.29,64,1.36,1.36,0,0,1,9,63.89a1.43,1.43,0,0,1-.24-.16,1.35,1.35,0,0,1-.36-.54,2.19,2.19,0,0,1-.15-.87,2.36,2.36,0,0,1,.13-.86,1.55,1.55,0,0,1,.33-.55,1.28,1.28,0,0,1,.47-.29,1.47,1.47,0,0,1,.5-.09,1.38,1.38,0,0,1,1,.39A1.41,1.41,0,0,1,11.15,62v.57ZM10.45,62a.85.85,0,0,0-.22-.61.66.66,0,0,0-.51-.2.69.69,0,0,0-.52.2A.89.89,0,0,0,9,62Z"/><path class="cls-1" d="M12.68,62.57a.81.81,0,0,0,.83.86,1,1,0,0,0,.76-.34l.51.43a1.62,1.62,0,0,1-1.25.56A1.64,1.64,0,0,1,13,64a1.36,1.36,0,0,1-.25-.11l-.25-.16a1.44,1.44,0,0,1-.35-.54,2.19,2.19,0,0,1-.15-.87,2.36,2.36,0,0,1,.13-.86,1.42,1.42,0,0,1,.33-.55,1.28,1.28,0,0,1,.47-.29,1.43,1.43,0,0,1,.5-.09,1.4,1.4,0,0,1,1,.39A1.44,1.44,0,0,1,14.85,62v.57ZM14.15,62a.85.85,0,0,0-.22-.61.66.66,0,0,0-.51-.2.69.69,0,0,0-.52.2,1,1,0,0,0-.22.61Z"/><path class="cls-1" d="M15.85,60.57h.7v.37h0a1.13,1.13,0,0,1,.9-.41,1.08,1.08,0,0,1,.73.27l-.51.6a.77.77,0,0,0-.46-.17.69.69,0,0,0-.46.17.72.72,0,0,0-.22.55V64h-.7Z"/><path class="cls-1" d="M20.77,59.17h1.71A1.63,1.63,0,0,1,24,60a1.44,1.44,0,0,1,.23.58c0,.2,0,.54,0,1a6.93,6.93,0,0,1,0,1.09,1.58,1.58,0,0,1-.08.28l-.14.25a1.7,1.7,0,0,1-.59.57,1.74,1.74,0,0,1-.93.24H20.77Zm.74,4.17h.89a1,1,0,0,0,.9-.42.91.91,0,0,0,.16-.4,8.49,8.49,0,0,0,0-.89c0-.42,0-.72,0-.91a.78.78,0,0,0-.2-.44.94.94,0,0,0-.86-.41h-.89Z"/><path class="cls-1" d="M25.83,62.57a.79.79,0,0,0,.83.86,1,1,0,0,0,.75-.34l.51.43a1.6,1.6,0,0,1-1.25.56,1.68,1.68,0,0,1-.54-.08,1.36,1.36,0,0,1-.25-.11,1.43,1.43,0,0,1-.24-.16,1.35,1.35,0,0,1-.36-.54,2.19,2.19,0,0,1-.15-.87,2.36,2.36,0,0,1,.13-.86,1.55,1.55,0,0,1,.33-.55,1.36,1.36,0,0,1,.47-.29,1.47,1.47,0,0,1,.5-.09,1.42,1.42,0,0,1,1,.39A1.44,1.44,0,0,1,28,62v.57ZM27.29,62a.85.85,0,0,0-.22-.61.66.66,0,0,0-.51-.2.69.69,0,0,0-.52.2.89.89,0,0,0-.21.61Z"/><path class="cls-1" d="M28.47,60.57h.73L30,63h0l.82-2.43h.74L30.31,64h-.57Z"/><path class="cls-1" d="M32.76,62.57a.83.83,0,0,0,.24.64.84.84,0,0,0,.59.22,1,1,0,0,0,.76-.34l.5.43a1.6,1.6,0,0,1-1.25.56,1.59,1.59,0,0,1-.53-.08,1.19,1.19,0,0,1-.26-.11,2,2,0,0,1-.24-.16,1.35,1.35,0,0,1-.36-.54,2.19,2.19,0,0,1-.15-.87,2.36,2.36,0,0,1,.13-.86,1.71,1.71,0,0,1,.33-.55,1.36,1.36,0,0,1,.47-.29,1.51,1.51,0,0,1,.5-.09,1.42,1.42,0,0,1,1,.39A1.4,1.4,0,0,1,34.92,62v.57ZM34.22,62a.89.89,0,0,0-.21-.61.69.69,0,0,0-.52-.2.66.66,0,0,0-.51.2.85.85,0,0,0-.22.61Z"/><path class="cls-1" d="M35.93,59.17h.7v4c0,.16.08.23.26.23h.24V64h-.31a1,1,0,0,1-.63-.19.76.76,0,0,1-.26-.65Z"/><path class="cls-1" d="M37.8,62.3a3.06,3.06,0,0,1,.09-.84,1.17,1.17,0,0,1,.29-.48,1.18,1.18,0,0,1,.4-.31,1.36,1.36,0,0,1,.65-.14,1.45,1.45,0,0,1,.67.14,1.2,1.2,0,0,1,.38.31,1.09,1.09,0,0,1,.3.48,3.6,3.6,0,0,1,.08.84,3.48,3.48,0,0,1-.08.84,1.22,1.22,0,0,1-.3.5,1.17,1.17,0,0,1-.16.15.69.69,0,0,1-.22.14,1.33,1.33,0,0,1-.67.15,1.25,1.25,0,0,1-.65-.15,1.15,1.15,0,0,1-.4-.29,1.32,1.32,0,0,1-.29-.5A3,3,0,0,1,37.8,62.3Zm2.16,0a3.39,3.39,0,0,0,0-.54.61.61,0,0,0-.14-.29.47.47,0,0,0-.23-.18.67.67,0,0,0-.33-.07.72.72,0,0,0-.33.07.58.58,0,0,0-.23.18.7.7,0,0,0-.13.29,2.3,2.3,0,0,0,0,.53,2.25,2.25,0,0,0,0,.53.69.69,0,0,0,.13.3.84.84,0,0,0,.23.18.72.72,0,0,0,.33.07.67.67,0,0,0,.33-.07.62.62,0,0,0,.23-.18.6.6,0,0,0,.14-.3A3.19,3.19,0,0,0,40,62.31Z"/><path class="cls-1" d="M41.67,60.57h.7v.36a1.18,1.18,0,0,1,.89-.4,1.09,1.09,0,0,1,.94.45.94.94,0,0,1,.19.44,4.71,4.71,0,0,1,0,.89,4.65,4.65,0,0,1,0,.88.94.94,0,0,1-.19.44,1.07,1.07,0,0,1-.38.32,1.1,1.1,0,0,1-.56.13,1.06,1.06,0,0,1-.48-.11,1.31,1.31,0,0,1-.41-.3v1.78h-.7Zm1.38,2.81a.7.7,0,0,0,.39-.09.51.51,0,0,0,.21-.25,1.69,1.69,0,0,0,.09-.34v-.79a1.62,1.62,0,0,0-.09-.35.47.47,0,0,0-.21-.25.81.81,0,0,0-.39-.08.68.68,0,0,0-.37.09.53.53,0,0,0-.21.26,1.21,1.21,0,0,0-.08.34,2.55,2.55,0,0,0,0,.39,2.3,2.3,0,0,0,0,.37,1.2,1.2,0,0,0,.08.35.47.47,0,0,0,.21.25A.6.6,0,0,0,43.05,63.38Z"/><path class="cls-1" d="M45.54,60.57h.7v.37h0a1.14,1.14,0,0,1,.91-.41,1.22,1.22,0,0,1,.58.12,2.41,2.41,0,0,1,.4.33,1.36,1.36,0,0,1,1.09-.45,1.2,1.2,0,0,1,.79.3,1.21,1.21,0,0,1,.37.91V64h-.7V62a.79.79,0,0,0-.19-.56.66.66,0,0,0-.5-.19.66.66,0,0,0-.49.19.75.75,0,0,0-.2.56V64h-.7V62a.75.75,0,0,0-.19-.56.66.66,0,0,0-.49-.19.64.64,0,0,0-.49.19.71.71,0,0,0-.2.56V64h-.7Z"/><path class="cls-1" d="M52.13,62.57a.81.81,0,0,0,.83.86,1,1,0,0,0,.76-.34l.51.43a1.62,1.62,0,0,1-1.25.56,1.64,1.64,0,0,1-.54-.08,1.36,1.36,0,0,1-.25-.11l-.25-.16a1.44,1.44,0,0,1-.35-.54,2.19,2.19,0,0,1-.15-.87,2.36,2.36,0,0,1,.13-.86,1.42,1.42,0,0,1,.33-.55,1.28,1.28,0,0,1,.47-.29,1.43,1.43,0,0,1,.5-.09,1.4,1.4,0,0,1,1,.39A1.44,1.44,0,0,1,54.3,62v.57ZM53.6,62a.85.85,0,0,0-.22-.61.66.66,0,0,0-.51-.2.69.69,0,0,0-.52.2,1,1,0,0,0-.22.61Z"/><path class="cls-1" d="M55.3,60.57H56v.37h0a1.13,1.13,0,0,1,.9-.41,1.2,1.2,0,0,1,.79.3,1.18,1.18,0,0,1,.37.91V64h-.7V62a.75.75,0,0,0-.19-.56.66.66,0,0,0-.49-.19.68.68,0,0,0-.5.19A.75.75,0,0,0,56,62V64h-.7Z"/><path class="cls-1" d="M59.3,59.52H60v1h.5v.53H60v2c0,.17.07.26.24.25h.26V64h-.36a.79.79,0,0,1-.84-.85V61.1H59v-.53h.35Z"/><path class="cls-1" d="M65.91,63H64.06L63.69,64h-.78l1.77-4.87h.62L67.07,64h-.78Zm-.21-.65L65,60.17h0l-.7,2.13Z"/><path class="cls-1" d="M67.68,60.57h.7v2.07a.75.75,0,0,0,.19.55.68.68,0,0,0,.5.19.66.66,0,0,0,.49-.19.75.75,0,0,0,.19-.55V60.57h.7V64h-.7v-.37h0a1.1,1.1,0,0,1-.9.41,1.17,1.17,0,0,1-.78-.31,1.08,1.08,0,0,1-.38-.89Z"/><path class="cls-1" d="M71.67,59.52h.7v1h.51v.53h-.51v2c0,.17.08.26.25.25h.26V64h-.37a.84.84,0,0,1-.6-.22.82.82,0,0,1-.24-.63V61.1h-.35v-.53h.35Z"/><path class="cls-1" d="M73.81,59.17h.7v1.77h0a1.13,1.13,0,0,1,.9-.41,1.2,1.2,0,0,1,.79.3,1.18,1.18,0,0,1,.37.91V64h-.7V62a.75.75,0,0,0-.19-.56.66.66,0,0,0-.49-.19.68.68,0,0,0-.5.19.75.75,0,0,0-.19.56V64h-.7Z"/><path class="cls-1" d="M77.59,62.3a3.06,3.06,0,0,1,.09-.84A1.17,1.17,0,0,1,78,61a1.18,1.18,0,0,1,.4-.31,1.39,1.39,0,0,1,.65-.14,1.42,1.42,0,0,1,.67.14,1.2,1.2,0,0,1,.38.31,1.09,1.09,0,0,1,.3.48,3.6,3.6,0,0,1,.08.84,3.48,3.48,0,0,1-.08.84,1.22,1.22,0,0,1-.3.5.78.78,0,0,1-.16.15.69.69,0,0,1-.22.14,1.3,1.3,0,0,1-.67.15,1.28,1.28,0,0,1-.65-.15,1.15,1.15,0,0,1-.4-.29,1.32,1.32,0,0,1-.29-.5A3,3,0,0,1,77.59,62.3Zm2.16,0a3.39,3.39,0,0,0,0-.54.61.61,0,0,0-.14-.29.44.44,0,0,0-.22-.18.74.74,0,0,0-.34-.07.72.72,0,0,0-.33.07.58.58,0,0,0-.23.18.86.86,0,0,0-.13.29,2.3,2.3,0,0,0,0,.53,2.25,2.25,0,0,0,0,.53.83.83,0,0,0,.13.3.84.84,0,0,0,.23.18.72.72,0,0,0,.33.07.74.74,0,0,0,.34-.07.58.58,0,0,0,.22-.18.6.6,0,0,0,.14-.3A3.19,3.19,0,0,0,79.75,62.31Z"/><path class="cls-1" d="M81.46,60.57h.7v.37h0a1.13,1.13,0,0,1,.9-.41,1.06,1.06,0,0,1,.73.27l-.5.6a.77.77,0,0,0-.46-.17.67.67,0,0,0-.68.72V64h-.7Z"/><path class="cls-1" d="M84.42,59.17h.7v.7h-.7Zm0,1.4h.7V64h-.7Z"/><path class="cls-1" d="M86.35,59.52h.7v1h.51v.53h-.51v2c0,.17.08.26.25.25h.26V64H87.2a.81.81,0,0,1-.6-.22.79.79,0,0,1-.25-.63V61.1H86v-.53h.34Z"/><path class="cls-1" d="M88,60.57h.74L89.55,63h0l.82-2.43h.74l-1.5,4.19a1,1,0,0,1-.39.54,1.18,1.18,0,0,1-.59.15h-.23v-.66h.21a.45.45,0,0,0,.25-.07.5.5,0,0,0,.17-.23l.19-.58Z"/><rect class="cls-1" x="11.32" y="38.66" width="1.48" height="1.54" transform="translate(-24.35 20.06) rotate(-44.98)"/><rect class="cls-1" x="13.98" y="38.66" width="1.48" height="1.54" transform="translate(-23.57 21.96) rotate(-45)"/><rect class="cls-1" x="46.62" y="25.7" width="1.48" height="1.54" transform="translate(-4.84 41.24) rotate(-45)"/><rect class="cls-1" x="43.96" y="25.7" width="1.48" height="1.54" transform="translate(-5.62 39.36) rotate(-45)"/><rect class="cls-1" x="59.28" y="25.76" width="1.48" height="1.54" transform="translate(-1.18 50.21) rotate(-45)"/><rect class="cls-1" x="56.41" y="25.76" width="1.48" height="1.54" transform="translate(-2.02 48.18) rotate(-45)"/><path class="cls-1" d="M68.06,27.47V27a.54.54,0,0,1,.35-.52.63.63,0,0,1,.21,0H69v-.69h-.42A1.21,1.21,0,0,0,67.37,27v1.18h1.87v-.68Z"/><rect class="cls-1" x="76.37" y="38.66" width="1.48" height="1.54" transform="translate(-5.31 66.05) rotate(-44.98)"/><rect class="cls-1" x="73.7" y="38.66" width="1.49" height="1.54" transform="translate(-6.08 64.2) rotate(-45)"/><rect class="cls-1" x="9.49" y="55.11" width="1.48" height="1.54" transform="translate(-36.52 23.6) rotate(-45)"/><rect class="cls-1" x="6.82" y="55.11" width="1.49" height="1.54" transform="translate(-37.3 21.72) rotate(-45)"/><path class="cls-1" d="M37.63,51.36h-8.7V47.57h8.69V45.81H27.17v5.55H24.58V45.84H22.82v5.52H20V45.84H18.26v5.52H15.43V45.84H13.67v5.52H9.91V45.84H8.09v5.51h-3V45.89H3.35v7.34a1.52,1.52,0,0,1-1.51,1.52H1.34v1.76h.34A3.43,3.43,0,0,0,5.1,53.12H37.63Z"/><rect class="cls-1" x="44.09" y="42.21" width="1.48" height="1.54" transform="translate(-17.26 44.29) rotate(-45)"/><rect class="cls-1" x="46.97" y="42.21" width="1.48" height="1.54" transform="translate(-16.42 46.34) rotate(-45.02)"/><rect class="cls-1" x="56.96" y="42.18" width="1.48" height="1.54" transform="translate(-13.47 53.4) rotate(-45.02)"/><rect class="cls-1" x="54.13" y="42.18" width="1.48" height="1.54" transform="translate(-14.3 51.38) rotate(-45)"/><rect class="cls-1" x="78.36" y="42.21" width="1.48" height="1.54" transform="translate(-7.23 68.52) rotate(-45)"/><path class="cls-1" d="M71.54,46a3.57,3.57,0,0,1,1.1.18A2.75,2.75,0,0,1,74,47.6a2.46,2.46,0,0,1,.26,1v2.71h3.89V46H80v5.4h3.85V48.65a3,3,0,0,1,.18-1,4.25,4.25,0,0,1,.62-.92,2.1,2.1,0,0,1,.82-.53,2.6,2.6,0,0,1,1.14-.26h4.31v7.21H42.1V48.65a3.19,3.19,0,0,1,.17-1,3.46,3.46,0,0,1,.62-.92,2.22,2.22,0,0,1,.83-.53,2.43,2.43,0,0,1,1.06-.26H49.1v5.46h4V48.65a2.76,2.76,0,0,1,.19-1,3.49,3.49,0,0,1,1.49-1.48A3.35,3.35,0,0,1,55.81,46h3.93v5.4h3.59V42.21h1.76V46Zm15.08,1.76a1.16,1.16,0,0,0-.85.37l0,0,0,0a1,1,0,0,0-.1.5v2.71h3.49V47.72ZM65.31,51.36h7.17V48.65a.9.9,0,0,0-.27-.67.92.92,0,0,0-.67-.26H65.31Zm-7.39-3.64H55.81a1.17,1.17,0,0,0-.48.09.9.9,0,0,0-.52.84v2.71h3.11V47.72Zm-13.14,0a.88.88,0,0,0-.43.1.86.86,0,0,0-.5.83v2.71h3.49V47.72Z"/><polygon class="cls-1" points="163.11 3.31 163.11 0 106.99 0 106.99 0.35 106.99 3.31 106.99 14.06 106.99 17.08 106.99 17.37 163.11 17.37 163.11 14.06 110.3 14.06 110.3 3.31 163.11 3.31"/><path class="cls-1" d="M107,47.57h13.36l8.78,8.78,2.08-2.08,3.8-3.82,5.89,5.89h0L143,54.27h0l6.69-6.69h13.44V44.26H107Zm22.14,4.62-4.62-4.62h9.23Z"/><rect class="cls-1" x="106.99" y="60.74" width="56.12" height="3.31"/><path class="cls-1" d="M146.67,22.12,140.79,28l-5.89-5.88L129,28l-5.88-5.88h0v0L110.45,34.73H107V38h56.12V34.73h-3.89Zm0,4.16,8.45,8.45h-7.57l-4.67-4.65Zm-3.32,8.45h-5.13l2.56-2.56ZM129,32.17l2.56,2.56h-5.12Zm-5.89-5.89,3.81,3.81-4.65,4.64h-7.61Z"/><polygon class="cls-2" points="123.12 26.28 126.93 30.09 122.28 34.73 114.67 34.73 123.12 26.28"/><rect class="cls-3" x="132.2" y="27.4" width="5.39" height="5.39" transform="translate(18.23 104.2) rotate(-45)"/><polygon class="cls-4" points="129.01 32.17 131.57 34.73 126.45 34.73 129.01 32.17"/><polygon class="cls-2" points="143.35 34.73 138.22 34.73 140.78 32.17 143.35 34.73"/><polygon class="cls-4" points="146.67 26.28 155.12 34.73 147.55 34.73 142.88 30.07 146.67 26.28"/><polygon class="cls-5" points="129.13 52.19 124.51 47.57 133.74 47.57 129.13 52.19"/><polygon class="cls-6" points="140.9 52.19 136.28 47.57 145.51 47.57 140.9 52.19"/><path class="cls-1" d="M90.93,31.32a4.27,4.27,0,0,0-4.27-4.27h-2v1.82h1.85a2.62,2.62,0,0,1,2.63,2.63v3.41H86.77V30.2H82.46a2.93,2.93,0,0,0-2.92,2.93v1.78H76.79v-5.4H75v5.4H69.16v-5.4H67.35v5.4H61.41V29.45H57.1a2.43,2.43,0,0,0-1.07.26,2.22,2.22,0,0,0-.83.53,3.46,3.46,0,0,0-.62.92,3.19,3.19,0,0,0-.17,1v4.46H90.93v0h0ZM59.65,34.91H56.16V32.2a.87.87,0,0,1,.5-.83.89.89,0,0,1,.44-.1h2.55Zm21.64,0v-1.6A1.29,1.29,0,0,1,82.58,32H85v2.89Z"/><path class="cls-1" d="M5.11,36.66H15.46V29.51H13.64v5.4H5.11V29.45H3.35v7.34a1.52,1.52,0,0,1-1.52,1.52H1.34v1.76h.34A3.42,3.42,0,0,0,5.1,36.65h0Z"/><path class="cls-1" d="M46.33,29.51v5.4H41.15V32.2a2.46,2.46,0,0,0-.26-1.05,2.75,2.75,0,0,0-1.4-1.46,3.57,3.57,0,0,0-1.1-.18H31.72V25.76H30v9.15H25.28V29.45H20.89a2.26,2.26,0,0,0-1.05.26,2.14,2.14,0,0,0-.83.53,4.08,4.08,0,0,0-.62.93,3.79,3.79,0,0,0-.25,1v4.46h5.32v.14A1.5,1.5,0,0,1,22,38.32h-.49v1.75h.34a3.41,3.41,0,0,0,3.42-3.41H48.15V29.51Zm-22.87,5.4H20V32.2a.94.94,0,0,1,.42-.82l0,0h0a1.52,1.52,0,0,1,.44-.08h2.57Zm15.87,0H32V31.27h6.44a.92.92,0,0,1,.67.26.9.9,0,0,1,.27.67Z"/></g></g></svg>