<?xml version="1.0" encoding="utf-8"?>
<!-- Generator: Adobe Illustrator 24.0.2, SVG Export Plug-In . SVG Version: 6.00 Build 0)  -->
<svg version="1.1" id="Layer_1" xmlns="http://www.w3.org/2000/svg" xmlns:xlink="http://www.w3.org/1999/xlink" x="0px" y="0px"
	 viewBox="0 0 56.1 64.8" style="enable-background:new 0 0 56.1 64.8;" xml:space="preserve">
<style type="text/css">
	.st0{fill:#FFFFFF;}
	.st1{fill:#FFA400;}
	.st2{fill:#D7282F;}
	.st3{fill:#3DAE2B;}
	.st4{fill:#005CB9;}
	.st5{fill:#00A0DF;}
</style>
<title>Asset 1</title>
<g>
	<polygon class="st0" points="56.1,4.3 56.1,1 0,1 0,1.4 0,4.3 0,15.1 0,18.1 0,18.4 56.1,18.4 56.1,15.1 3.3,15.1 3.3,4.3 	"/>
	<path class="st0" d="M0,48.6h13.4l8.8,8.8l2.1-2.1l3.8-3.8l5.9,5.9l0,0l2.1-2.1l0,0l6.7-6.7h13.4v-3.3H0V48.6z M22.2,53.2l-4.6-4.6
		h9.2L22.2,53.2z"/>
	<rect y="61.7" class="st0" width="56.1" height="3.3"/>
	<path class="st0" d="M39.7,23.1L33.8,29l-5.9-5.9L22,29l-5.9-5.9l0,0l0,0L3.5,35.7H0V39h56.1v-3.3h-3.9L39.7,23.1z M39.7,27.3
		l8.4,8.4h-7.6l-4.7-4.6L39.7,27.3z M36.4,35.7h-5.1l2.6-2.6L36.4,35.7z M22,33.2l2.6,2.6h-5.1L22,33.2z M16.1,27.3l3.8,3.8
		l-4.7,4.6H7.7L16.1,27.3z"/>
	<polygon class="st1" points="16.1,27.3 19.9,31.1 15.3,35.7 7.7,35.7 	"/>
	
		<rect x="25.2" y="28.4" transform="matrix(0.7071 -0.7071 0.7071 0.7071 -13.8143 28.8398)" class="st2" width="5.4" height="5.4"/>
	<polygon class="st3" points="22,33.2 24.6,35.7 19.5,35.7 	"/>
	<polygon class="st1" points="36.4,35.7 31.2,35.7 33.8,33.2 	"/>
	<polygon class="st3" points="39.7,27.3 48.1,35.7 40.6,35.7 35.9,31.1 	"/>
	<polygon class="st4" points="22.1,53.2 17.5,48.6 26.8,48.6 	"/>
	<polygon class="st5" points="33.9,53.2 29.3,48.6 38.5,48.6 	"/>
</g>
</svg>
