<svg width="36" height="46" viewBox="0 0 36 46" fill="none" xmlns="http://www.w3.org/2000/svg">
<path d="M15.6219 30.1549H7.48291V43.3807H15.6219V30.1549Z" stroke="#274F51" stroke-width="1.7" stroke-miterlimit="10"/>
<path d="M11.5525 33.2071V36.2592" stroke="#274F51" stroke-width="1.7" stroke-miterlimit="10"/>
<path d="M26.8129 31.1722H32.9171C36.9866 31.1722 34.2371 44.398 31.8997 44.398H23.7608C19.1826 44.398 19.6913 42.3633 16.6392 42.3633H15.6218" stroke="#274F51" stroke-width="1.7" stroke-miterlimit="10"/>
<path d="M15.6218 31.1723H17.6566C18.3407 31.1723 19.222 30.815 20.2877 29.4047C21.5887 27.6802 23.4327 27.1028 25.0134 27.1028H26.8129" stroke="#274F51" stroke-width="1.7" stroke-miterlimit="10"/>
<path d="M28.8477 4.01101C24.5073 2.21917 17.7609 1.22088 13.5872 3.12081V16.601C15.3828 13.7803 24.5073 15.5391 28.8477 17.3309" stroke="#274F51" stroke-width="1.7" stroke-linecap="round" stroke-linejoin="round"/>
<path d="M10.4739 6.87246C7.05304 7.08992 2.91743 6.59142 1.37866 5.7381L6.35486 13.5896L1.61394 19.8134C4.41171 21.3674 15.8291 21.7439 15.8571 18.7668" stroke="#274F51" stroke-width="1.7" stroke-linecap="round" stroke-linejoin="round"/>
<path d="M28.8477 1.66858V31.1723" stroke="#274F51" stroke-width="1.7" stroke-linecap="round" stroke-linejoin="round"/>
</svg>
