<svg width="54" height="33" viewBox="0 0 54 33" fill="none" xmlns="http://www.w3.org/2000/svg">
<path d="M14.3067 3.55131L9.54535 0.906244C9.46074 0.859241 9.36748 0.829884 9.27121 0.819946C9.17494 0.810008 9.07765 0.819695 8.98522 0.848423C8.8928 0.877151 8.80716 0.924322 8.73349 0.987085C8.65981 1.04985 8.59963 1.1269 8.55658 1.21358L1.06397 16.2934C0.982318 16.4578 0.966949 16.6474 1.02104 16.8228C1.07513 16.9983 1.19455 17.1463 1.35462 17.2362L5.97549 19.8305C6.05965 19.8778 6.1525 19.9075 6.24845 19.918C6.34441 19.9285 6.44149 19.9194 6.53385 19.8914C6.62622 19.8633 6.71196 19.8169 6.78593 19.7549C6.85989 19.6929 6.92055 19.6166 6.96425 19.5305L14.5973 4.50148C14.6813 4.33628 14.6979 4.14496 14.6437 3.96776C14.5895 3.79055 14.4687 3.64127 14.3067 3.55131V3.55131Z" stroke="#274F51" stroke-width="1.5" stroke-linecap="round" stroke-linejoin="round"/>
<path d="M52.9258 16.2934L45.4332 1.21358C45.3901 1.1269 45.3299 1.04985 45.2562 0.987085C45.1826 0.924322 45.0969 0.877151 45.0045 0.848423C44.9121 0.819695 44.8148 0.810008 44.7185 0.819946C44.6223 0.829884 44.529 0.859241 44.4444 0.906244L39.6813 3.55131C39.5193 3.64127 39.3985 3.79055 39.3443 3.96776C39.2901 4.14496 39.3067 4.33628 39.3907 4.50148L47.0237 19.5305C47.0674 19.6166 47.1281 19.6929 47.2021 19.7549C47.276 19.8169 47.3618 19.8633 47.4541 19.8914C47.5465 19.9194 47.6436 19.9285 47.7395 19.918C47.8355 19.9075 47.9283 19.8778 48.0125 19.8305L52.6334 17.2362C52.7938 17.1466 52.9135 16.9987 52.968 16.8232C53.0224 16.6477 53.0073 16.458 52.9258 16.2934V16.2934Z" stroke="#274F51" stroke-width="1.5" stroke-linecap="round" stroke-linejoin="round"/>
<path d="M27.0532 29.2402L30.119 31.1047C30.5945 31.3939 31.1593 31.4992 31.7071 31.4008C32.2548 31.3025 32.7477 31.0072 33.0929 30.5707C33.2805 30.3335 33.419 30.0614 33.5005 29.7701C33.5819 29.4789 33.6046 29.1744 33.5673 28.8743C33.5299 28.5742 33.4333 28.2845 33.283 28.0221C33.1327 27.7597 32.9317 27.5298 32.6917 27.3457L30.8706 25.9502" stroke="#274F51" stroke-width="1.5" stroke-linecap="round" stroke-linejoin="round"/>
<path d="M7.93701 17.6152L13.0189 20.7053" stroke="#274F51" stroke-width="1.5" stroke-linecap="round" stroke-linejoin="round"/>
<path d="M32.8635 22.2635L35.8914 24.7379C36.1 24.9084 36.2722 25.119 36.398 25.3573C36.5237 25.5955 36.6004 25.8565 36.6235 26.1249C36.6466 26.3933 36.6156 26.6637 36.5323 26.9199C36.4491 27.1761 36.3153 27.413 36.1389 27.6166V27.6166C35.8045 28.0024 35.3361 28.2469 34.8283 28.3004C34.3205 28.354 33.8114 28.2127 33.4038 27.9052L31.3234 26.3351" stroke="#274F51" stroke-width="1.5" stroke-linecap="round" stroke-linejoin="round"/>
<path d="M34.8065 18.4928L39.1434 21.9309C39.3659 22.1072 39.5497 22.3276 39.6832 22.5781C39.8168 22.8287 39.8973 23.1041 39.9197 23.3871C39.9421 23.6702 39.9059 23.9548 39.8133 24.2232C39.7208 24.4917 39.5739 24.7381 39.3819 24.9473V24.9473C39.0311 25.3295 38.5493 25.5657 38.0323 25.609C37.5153 25.6523 37.001 25.4994 36.5915 25.1809L33.3032 22.6238" stroke="#274F51" stroke-width="1.5" stroke-linecap="round" stroke-linejoin="round"/>
<path d="M29.7761 9.70886L42.1531 19.1032C42.3737 19.2721 42.5573 19.4845 42.6926 19.7271C42.8279 19.9697 42.9121 20.2375 42.9399 20.514C42.9677 20.7904 42.9386 21.0696 42.8544 21.3343C42.7701 21.599 42.6325 21.8437 42.45 22.0532V22.0532C42.1079 22.4461 41.628 22.6927 41.1093 22.742C40.5907 22.7914 40.0729 22.6398 39.6628 22.3185L37.0928 20.3051" stroke="#274F51" stroke-width="1.5" stroke-linecap="round" stroke-linejoin="round"/>
<path d="M13.7507 6.16823L14.2159 6.4554C14.7774 6.69222 15.3863 6.79499 15.9944 6.75558C16.6026 6.71618 17.1931 6.53567 17.7194 6.22838L21.5712 3.97931C22.1622 3.63474 22.8189 3.41789 23.4988 3.34274C24.1788 3.26758 24.867 3.3358 25.519 3.54298L26.4723 3.84546" stroke="#274F51" stroke-width="1.5" stroke-linecap="round" stroke-linejoin="round"/>
<path d="M40.2816 6.2547L39.6238 6.43897C38.8274 6.62188 37.9924 6.52795 37.2565 6.17265L32.6781 3.96009C31.5844 3.43217 30.378 3.18036 29.1645 3.22673C27.9509 3.2731 26.7673 3.61622 25.7171 4.22606L21.6274 6.60237C21.1588 6.87456 20.7787 7.27619 20.5326 7.75906L18.6277 11.4972C18.4766 11.7933 18.446 12.1364 18.5424 12.4546C18.6387 12.7728 18.8544 13.0413 19.1444 13.2039V13.2039C19.7036 13.5181 20.3495 13.6431 20.9856 13.56C21.6217 13.4769 22.2138 13.1902 22.6736 12.7429L25.4869 10.0853C25.9318 9.66528 26.4847 9.37722 27.0838 9.25332C27.683 9.12943 28.3048 9.17457 28.8798 9.38372L29.7747 9.70914" stroke="#274F51" stroke-width="1.5" stroke-linecap="round" stroke-linejoin="round"/>
<path d="M13.982 19.2853L12.599 21.4826C12.3171 21.9298 12.223 22.4701 12.3369 22.9862C12.4508 23.5024 12.7635 23.9529 13.2074 24.24L13.215 24.2452C13.4388 24.39 13.6891 24.4888 13.9514 24.5359C14.2137 24.583 14.4828 24.5774 14.7429 24.5195C15.0031 24.4617 15.2491 24.3526 15.4667 24.1987C15.6843 24.0448 15.8691 23.8492 16.0103 23.6232L17.3857 21.4228C17.6619 20.9806 17.7555 20.4484 17.6467 19.9385C17.5378 19.4286 17.235 18.9809 16.8023 18.6901V18.6901C16.5793 18.5401 16.3284 18.4364 16.0646 18.3851C15.8007 18.3338 15.5293 18.3359 15.2663 18.3914C15.0033 18.4469 14.7541 18.5547 14.5335 18.7082C14.3129 18.8617 14.1254 19.058 13.982 19.2853V19.2853Z" stroke="#274F51" stroke-width="1.5" stroke-linecap="round" stroke-linejoin="round"/>
<path d="M24.5918 25.4907L23.2087 27.6862C22.9269 28.1334 22.8327 28.6738 22.9466 29.19C23.0605 29.7062 23.3733 30.1568 23.8172 30.4439L23.8248 30.4488C24.0486 30.5935 24.2989 30.6924 24.5612 30.7395C24.8235 30.7866 25.0925 30.781 25.3527 30.7231C25.6128 30.6652 25.8589 30.5562 26.0764 30.4023C26.294 30.2484 26.4788 30.0528 26.6201 29.8268L27.9954 27.6264C28.2718 27.1842 28.3654 26.652 28.2566 26.142C28.1477 25.6321 27.8449 25.1845 27.4121 24.8937V24.8937C27.1889 24.7438 26.938 24.6402 26.6741 24.589C26.4102 24.5378 26.1387 24.5401 25.8757 24.5958C25.6127 24.6515 25.3635 24.7593 25.143 24.9131C24.9225 25.0668 24.735 25.2632 24.5918 25.4907V25.4907Z" stroke="#274F51" stroke-width="1.5" stroke-linecap="round" stroke-linejoin="round"/>
<path d="M21.5191 22.491L19.133 26.3577C18.8482 26.8193 18.7555 27.374 18.8748 27.9031C18.9941 28.4322 19.316 28.8935 19.7713 29.1881L19.7911 29.201C20.0237 29.3515 20.284 29.454 20.5568 29.5023C20.8295 29.5506 21.1092 29.5437 21.3793 29.4821C21.6494 29.4206 21.9044 29.3055 22.1293 29.1438C22.3541 28.982 22.5443 28.7769 22.6886 28.5404L25.0548 24.6608C25.3368 24.1983 25.4268 23.6439 25.3054 23.1161C25.1841 22.5882 24.861 22.1288 24.4054 21.836V21.836C24.1736 21.687 23.9145 21.5857 23.6431 21.5379C23.3717 21.4902 23.0935 21.497 22.8248 21.558C22.5561 21.619 22.3023 21.7329 22.0781 21.8931C21.8539 22.0533 21.6638 22.2565 21.5191 22.491V22.491Z" stroke="#274F51" stroke-width="1.5" stroke-linecap="round" stroke-linejoin="round"/>
<path d="M18.1501 20.1918L15.4036 24.6767C15.13 25.1236 15.042 25.6597 15.1582 26.1707C15.2744 26.6816 15.5856 27.1269 16.0255 27.4115L16.0356 27.4181C16.2609 27.5639 16.5132 27.663 16.7774 27.7097C17.0417 27.7564 17.3126 27.7496 17.5742 27.6898C17.8358 27.63 18.0828 27.5184 18.3005 27.3616C18.5183 27.2047 18.7024 27.0058 18.842 26.7767L21.5785 22.2834C21.7161 22.0574 21.8076 21.8064 21.8479 21.5449C21.8882 21.2833 21.8765 21.0164 21.8133 20.7595C21.7501 20.5025 21.6368 20.2606 21.4799 20.0475C21.323 19.8345 21.1255 19.6545 20.8988 19.518V19.518C20.4445 19.2448 19.9005 19.1622 19.3856 19.2885C18.8707 19.4147 18.4266 19.7394 18.1501 20.1918V20.1918Z" stroke="#274F51" stroke-width="1.5" stroke-linecap="round" stroke-linejoin="round"/>
<path d="M45.8492 17.2147L42.1542 19.1033" stroke="#274F51" stroke-width="1.5" stroke-linecap="round" stroke-linejoin="round"/>
</svg>
