<svg id="Layer_1" data-name="Layer 1" xmlns="http://www.w3.org/2000/svg" viewBox="0 0 2000 2000"><defs><style>.cls-1{fill:#878787;}</style></defs><path class="cls-1" d="M587.3,724.09h961.84a27.25,27.25,0,0,1,27.25,27.24v798.84a27.25,27.25,0,0,1-27.25,27.24H587.3a27.25,27.25,0,0,1-27.24-27.24V751.33a27.25,27.25,0,0,1,27.24-27.24Zm773.32,128.13a68.7,68.7,0,1,0,68.7,68.69,68.7,68.7,0,0,0-68.7-68.69ZM614.55,1317.11l346.69-361,166.14,242.83,147-143.78,247.54,367.43v-644H614.55Z"/><path class="cls-1" d="M1341.8,625h367.1a27.24,27.24,0,0,1,27.24,27.24v798.84a27.24,27.24,0,0,1-27.24,27.24h-96.12l-.12-54.48h69V679.53H1362.82Z"/><path class="cls-1" d="M282.26,777l241.21-95.16v5.43h-.11l.11,53-196,77.34,197.33,500.18.33,149L266.83,812.22A27.19,27.19,0,0,1,282.26,777ZM562.84,666.3,1177,424a27.18,27.18,0,0,1,35.22,15.43l97.08,246.07-58.41.13-79.31-201L705.91,668.33Z"/></svg>