<svg width="51" height="46" viewBox="0 0 51 46" fill="none" xmlns="http://www.w3.org/2000/svg">
<path d="M37.2541 5.87638C34.3508 5.61989 31.5442 4.60399 28.8742 3.51999L29.1047 3.59858C28.4985 3.53436 27.7629 3.42415 27.0638 3.44191C26.444 3.45988 25.8488 3.71218 25.3936 4.14992C24.9385 4.58766 24.6557 5.17968 24.6002 5.81126C24.3845 8.30885 25.6343 11.4223 26.2376 13.6278C26.268 13.7056 26.2855 13.7881 26.2896 13.8722C26.378 15.2702 26.3823 16.7761 26.3985 18.1766C26.3674 22.8207 27.1812 26.1232 30.5606 29.3628C24.6988 25.8148 24.8873 20.2682 24.2547 14.0991L24.306 14.3434C23.2183 11.2912 21.8287 8.06673 22.3452 4.71379C22.8316 1.98829 25.0159 1.02879 27.3062 1.09036C28.4489 1.13028 29.5637 1.4332 30.5677 1.97655C32.8266 3.17749 35.0588 4.60487 37.2541 5.87638Z" fill="#274F51"/>
<path d="M36.1986 3.14425C38.6715 0.836795 43.2459 0.332788 45.3584 3.30004C47.0665 5.73404 46.1817 8.9445 45.1466 11.4826C44.6964 12.6485 44.2013 13.8011 44.1387 15.0455C43.8525 19.7326 42.0221 27.3279 37.479 29.5192C41.1372 26.6457 42.1043 19.5561 42.1699 15.1342C42.1523 13.8255 42.4952 12.5099 42.944 11.3068C43.4775 9.68224 44.2288 7.92377 44.058 6.22153C43.6942 2.43363 39.0484 2.47405 36.1986 3.14425Z" fill="#274F51"/>
<path d="M41.7534 11.702C41.7509 11.9396 41.6563 12.168 41.4903 12.3372C41.3243 12.5064 41.1005 12.6025 40.8679 12.6045C40.7277 12.606 40.5897 12.5728 40.4659 12.5076C38.3936 14.0127 36.2383 14.7718 34.0886 14.7902C31.9389 14.8086 29.7961 14.0833 27.7493 12.6165C27.6244 12.6839 27.4858 12.7196 27.3456 12.7204C27.1127 12.7224 26.8902 12.6298 26.727 12.463C26.5637 12.2962 26.4731 12.0689 26.4751 11.831C26.4771 11.5932 26.5716 11.3643 26.7376 11.1947C26.9037 11.0251 27.1278 10.9287 27.3606 10.9267C27.5935 10.9247 27.816 11.0173 27.9792 11.184C28.1425 11.3508 28.233 11.5781 28.231 11.816C28.2305 11.9092 28.2156 12.002 28.1869 12.0909C30.0921 13.4455 32.077 14.122 34.0944 14.1047C36.1118 14.0874 38.1089 13.3768 40.0371 11.9888C40.0099 11.9005 39.9966 11.8082 39.9975 11.7152C39.9995 11.4773 40.0939 11.2484 40.26 11.0788C40.426 10.9092 40.6501 10.8128 40.883 10.8108C40.9984 10.8098 41.1125 10.8321 41.2188 10.8764C41.3251 10.9207 41.4214 10.9861 41.5022 11.0688C41.5831 11.1516 41.6469 11.2502 41.69 11.3588C41.7331 11.4675 41.7546 11.5841 41.7534 11.702Z" fill="#274F51"/>
<path d="M38.4674 21.9449C38.4664 22.0627 38.4427 22.1795 38.3977 22.2887C38.3527 22.3979 38.2872 22.4973 38.2049 22.5813C38.1227 22.6652 38.0254 22.7321 37.9185 22.7781C37.8116 22.8241 37.6972 22.8483 37.5819 22.8493C37.3837 22.852 37.1917 22.7857 37.0375 22.6612C36.061 22.9979 35.0408 23.174 34.0154 23.1829C32.99 23.1915 31.9726 23.0329 31.0017 22.7129C30.8453 22.8401 30.6521 22.9097 30.454 22.9103C30.3387 22.9113 30.2247 22.8891 30.1186 22.8449C30.0124 22.8008 29.9162 22.7356 29.8354 22.653C29.7545 22.5704 29.6907 22.4721 29.6475 22.3636C29.6043 22.2552 29.5826 22.1388 29.5835 22.021C29.5855 21.7832 29.6799 21.5542 29.846 21.3846C30.0121 21.215 30.2362 21.1186 30.469 21.1166C30.7019 21.1147 30.9244 21.2072 31.0876 21.374C31.2509 21.5408 31.3414 21.7681 31.3394 22.006C31.3392 22.0388 31.3389 22.071 31.3338 22.1027C33.0784 22.6517 34.9554 22.6357 36.7095 22.0566C36.7097 22.025 36.7051 21.9947 36.7054 21.96C36.7074 21.7221 36.8018 21.4932 36.9679 21.3236C37.134 21.154 37.3581 21.0576 37.5909 21.0556C37.7067 21.0538 37.8213 21.0754 37.9282 21.1192C38.035 21.163 38.132 21.2281 38.2134 21.3108C38.2949 21.3934 38.3593 21.492 38.4029 21.6008C38.4465 21.7097 38.4684 21.8266 38.4674 21.9449Z" fill="#274F51"/>
<path d="M40.6011 16.8705C40.5991 17.1084 40.5047 17.3373 40.3386 17.5069C40.1726 17.6765 39.9485 17.7729 39.7156 17.7749C39.549 17.7765 39.3862 17.7293 39.2466 17.6389C37.5574 18.5898 35.8031 19.0733 34.0526 19.0883C32.3022 19.1033 30.5563 18.6498 28.8823 17.7283C28.7413 17.821 28.5779 17.8708 28.4115 17.8717C28.1786 17.8737 27.9561 17.7812 27.7929 17.6144C27.6296 17.4476 27.5391 17.2203 27.5411 16.9824C27.5431 16.7446 27.6375 16.5157 27.8035 16.3461C27.9696 16.1765 28.1937 16.0801 28.4265 16.0781C28.5418 16.0771 28.6557 16.0993 28.7618 16.1435C28.8679 16.1876 28.9641 16.2529 29.0449 16.3355C29.1257 16.418 29.1895 16.5164 29.2326 16.6248C29.2758 16.7332 29.2974 16.8496 29.2963 16.9674C29.2958 17.0328 29.2883 17.0981 29.2741 17.1622C32.3742 18.8418 35.7361 18.8136 38.8642 17.08C38.851 17.016 38.8447 16.9506 38.8452 16.885C38.8472 16.6471 38.9416 16.4182 39.1077 16.2486C39.2737 16.079 39.4978 15.9826 39.7307 15.9806C39.846 15.9796 39.96 16.0018 40.0662 16.046C40.1724 16.0902 40.2686 16.1555 40.3495 16.2382C40.4303 16.3208 40.4941 16.4192 40.5373 16.5277C40.5805 16.6362 40.6022 16.7527 40.6011 16.8705Z" fill="#274F51"/>
<path d="M19.0809 2.21352L10.6692 1.37235C9.75331 1.28077 8.8461 1.61467 8.20815 2.27814L2.61047 8.09973C1.66238 9.08574 1.50132 10.5882 2.21888 11.7528L20.4465 41.3354C20.8371 41.9692 21.4493 42.4351 22.1642 42.6427L29.7344 44.8405C30.68 45.115 31.7002 44.908 32.4641 44.2866L47.869 31.7537C49.3152 30.5772 49.3494 28.3805 47.9406 27.1595L45.7091 25.2255" stroke="#274F51" stroke-width="1.7" stroke-linecap="round" stroke-linejoin="round"/>
</svg>
