<svg width="796" height="626" viewBox="0 0 796 626" fill="none" xmlns="http://www.w3.org/2000/svg">
<g opacity="0.4">
<path d="M448.675 297.324C469.212 297.324 489.288 303.414 506.364 314.825C523.44 326.235 536.748 342.453 544.606 361.428C552.464 380.402 554.518 401.281 550.51 421.423C546.501 441.565 536.609 460.066 522.085 474.586C507.561 489.106 489.057 498.993 468.914 502.996C448.77 506.999 427.892 504.938 408.92 497.075C389.948 489.212 373.734 475.899 362.328 458.82C350.922 441.741 344.838 421.664 344.843 401.126C344.843 387.492 347.529 373.992 352.748 361.396C357.966 348.8 365.615 337.356 375.257 327.717C384.899 318.077 396.345 310.432 408.943 305.217C421.54 300.002 435.041 297.32 448.675 297.324ZM448.675 297.324C469.212 297.324 489.288 303.414 506.364 314.825C523.44 326.235 536.748 342.453 544.606 361.428C552.464 380.402 554.518 401.281 550.51 421.423C546.501 441.565 536.609 460.066 522.085 474.586C507.561 489.106 489.057 498.993 468.914 502.996C448.77 506.999 427.892 504.938 408.92 497.075C389.948 489.212 373.734 475.899 362.328 458.82C350.922 441.741 344.838 421.664 344.843 401.126C344.843 387.492 347.529 373.992 352.748 361.396C357.966 348.8 365.615 337.356 375.257 327.717C384.899 318.077 396.345 310.432 408.943 305.217C421.54 300.002 435.041 297.32 448.675 297.324ZM448.675 297.324C469.212 297.324 489.288 303.414 506.364 314.825C523.44 326.235 536.748 342.453 544.606 361.428C552.464 380.402 554.518 401.281 550.51 421.423C546.501 441.565 536.609 460.066 522.085 474.586C507.561 489.106 489.057 498.993 468.914 502.996C448.77 506.999 427.892 504.938 408.92 497.075C389.948 489.212 373.734 475.899 362.328 458.82C350.922 441.741 344.838 421.664 344.843 401.126C344.843 387.492 347.529 373.992 352.748 361.396C357.966 348.8 365.615 337.356 375.257 327.717C384.899 318.077 396.345 310.432 408.943 305.217C421.54 300.002 435.041 297.32 448.675 297.324ZM448.675 297.324C469.212 297.324 489.288 303.414 506.364 314.825C523.44 326.235 536.748 342.453 544.606 361.428C552.464 380.402 554.518 401.281 550.51 421.423C546.501 441.565 536.609 460.066 522.085 474.586C507.561 489.106 489.057 498.993 468.914 502.996C448.77 506.999 427.892 504.938 408.92 497.075C389.948 489.212 373.734 475.899 362.328 458.82C350.922 441.741 344.838 421.664 344.843 401.126C344.843 387.492 347.529 373.992 352.748 361.396C357.966 348.8 365.615 337.356 375.257 327.717C384.899 318.077 396.345 310.432 408.943 305.217C421.54 300.002 435.041 297.32 448.675 297.324ZM448.675 297.324C469.212 297.324 489.288 303.414 506.364 314.825C523.44 326.235 536.748 342.453 544.606 361.428C552.464 380.402 554.518 401.281 550.51 421.423C546.501 441.565 536.609 460.066 522.085 474.586C507.561 489.106 489.057 498.993 468.914 502.996C448.77 506.999 427.892 504.938 408.92 497.075C389.948 489.212 373.734 475.899 362.328 458.82C350.922 441.741 344.838 421.664 344.843 401.126C344.843 387.492 347.529 373.992 352.748 361.396C357.966 348.8 365.615 337.356 375.257 327.717C384.899 318.077 396.345 310.432 408.943 305.217C421.54 300.002 435.041 297.32 448.675 297.324ZM448.675 297.324C469.212 297.324 489.288 303.414 506.364 314.825C523.44 326.235 536.748 342.453 544.606 361.428C552.464 380.402 554.518 401.281 550.51 421.423C546.501 441.565 536.609 460.066 522.085 474.586C507.561 489.106 489.057 498.993 468.914 502.996C448.77 506.999 427.892 504.938 408.92 497.075C389.948 489.212 373.734 475.899 362.328 458.82C350.922 441.741 344.838 421.664 344.843 401.126C344.843 387.492 347.529 373.992 352.748 361.396C357.966 348.8 365.615 337.356 375.257 327.717C384.899 318.077 396.345 310.432 408.943 305.217C421.54 300.002 435.041 297.32 448.675 297.324ZM448.675 297.324C469.212 297.324 489.288 303.414 506.364 314.825C523.44 326.235 536.748 342.453 544.606 361.428C552.464 380.402 554.518 401.281 550.51 421.423C546.501 441.565 536.609 460.066 522.085 474.586C507.561 489.106 489.057 498.993 468.914 502.996C448.77 506.999 427.892 504.938 408.92 497.075C389.948 489.212 373.734 475.899 362.328 458.82C350.922 441.741 344.838 421.664 344.843 401.126C344.843 387.492 347.529 373.992 352.748 361.396C357.966 348.8 365.615 337.356 375.257 327.717C384.899 318.077 396.345 310.432 408.943 305.217C421.54 300.002 435.041 297.32 448.675 297.324ZM448.675 297.324C469.212 297.324 489.288 303.414 506.364 314.825C523.44 326.235 536.748 342.453 544.606 361.428C552.464 380.402 554.518 401.281 550.51 421.423C546.501 441.565 536.609 460.066 522.085 474.586C507.561 489.106 489.057 498.993 468.914 502.996C448.77 506.999 427.892 504.938 408.92 497.075C389.948 489.212 373.734 475.899 362.328 458.82C350.922 441.741 344.838 421.664 344.843 401.126C344.843 387.492 347.529 373.992 352.748 361.396C357.966 348.8 365.615 337.356 375.257 327.717C384.899 318.077 396.345 310.432 408.943 305.217C421.54 300.002 435.041 297.32 448.675 297.324ZM449.522 176.903C628.504 177.165 788.326 267.825 849.427 401.126C788.092 534.895 627.774 625.379 448.675 625.379H447.828C268.817 625.087 109.024 534.516 47.8938 401.126C109.317 267.211 269.985 176.611 449.434 176.903H449.522ZM289.174 331.701C293.563 333.561 298.179 334.828 302.902 335.468C286.404 372.139 284.343 413.682 297.131 451.805C309.919 489.928 336.615 521.826 371.889 541.13C407.163 560.434 448.419 565.724 487.423 555.944C526.426 546.164 560.306 522.033 582.298 488.37C604.291 454.707 612.778 413.987 606.065 374.341C599.352 334.694 577.934 299.038 546.085 274.491C514.237 249.943 474.302 238.31 434.253 241.915C394.205 245.52 356.989 264.096 330.035 293.936C324.861 287.801 318.263 283.028 310.817 280.033C290.868 271.68 269.927 276.441 263.793 290.723C257.66 305.005 269.08 323.318 289.087 331.672L289.174 331.701ZM448.675 297.324C469.212 297.324 489.288 303.414 506.364 314.825C523.44 326.235 536.748 342.453 544.606 361.428C552.464 380.402 554.518 401.281 550.51 421.423C546.501 441.565 536.609 460.066 522.085 474.586C507.561 489.106 489.057 498.993 468.914 502.996C448.77 506.999 427.892 504.938 408.92 497.075C389.948 489.212 373.734 475.899 362.328 458.82C350.922 441.741 344.838 421.664 344.843 401.126C344.843 387.492 347.529 373.992 352.748 361.396C357.966 348.8 365.615 337.356 375.257 327.717C384.899 318.077 396.345 310.432 408.943 305.217C421.54 300.002 435.041 297.32 448.675 297.324ZM448.675 297.324C469.212 297.324 489.288 303.414 506.364 314.825C523.44 326.235 536.748 342.453 544.606 361.428C552.464 380.402 554.518 401.281 550.51 421.423C546.501 441.565 536.609 460.066 522.085 474.586C507.561 489.106 489.057 498.993 468.914 502.996C448.77 506.999 427.892 504.938 408.92 497.075C389.948 489.212 373.734 475.899 362.328 458.82C350.922 441.741 344.838 421.664 344.843 401.126C344.843 387.492 347.529 373.992 352.748 361.396C357.966 348.8 365.615 337.356 375.257 327.717C384.899 318.077 396.345 310.432 408.943 305.217C421.54 300.002 435.041 297.32 448.675 297.324ZM448.675 297.324C469.212 297.324 489.288 303.414 506.364 314.825C523.44 326.235 536.748 342.453 544.606 361.428C552.464 380.402 554.518 401.281 550.51 421.423C546.501 441.565 536.609 460.066 522.085 474.586C507.561 489.106 489.057 498.993 468.914 502.996C448.77 506.999 427.892 504.938 408.92 497.075C389.948 489.212 373.734 475.899 362.328 458.82C350.922 441.741 344.838 421.664 344.843 401.126C344.843 387.492 347.529 373.992 352.748 361.396C357.966 348.8 365.615 337.356 375.257 327.717C384.899 318.077 396.345 310.432 408.943 305.217C421.54 300.002 435.041 297.32 448.675 297.324ZM448.675 297.324C469.212 297.324 489.288 303.414 506.364 314.825C523.44 326.235 536.748 342.453 544.606 361.428C552.464 380.402 554.518 401.281 550.51 421.423C546.501 441.565 536.609 460.066 522.085 474.586C507.561 489.106 489.057 498.993 468.914 502.996C448.77 506.999 427.892 504.938 408.92 497.075C389.948 489.212 373.734 475.899 362.328 458.82C350.922 441.741 344.838 421.664 344.843 401.126C344.843 387.492 347.529 373.992 352.748 361.396C357.966 348.8 365.615 337.356 375.257 327.717C384.899 318.077 396.345 310.432 408.943 305.217C421.54 300.002 435.041 297.32 448.675 297.324ZM448.675 297.324C469.212 297.324 489.288 303.414 506.364 314.825C523.44 326.235 536.748 342.453 544.606 361.428C552.464 380.402 554.518 401.281 550.51 421.423C546.501 441.565 536.609 460.066 522.085 474.586C507.561 489.106 489.057 498.993 468.914 502.996C448.77 506.999 427.892 504.938 408.92 497.075C389.948 489.212 373.734 475.899 362.328 458.82C350.922 441.741 344.838 421.664 344.843 401.126C344.843 387.492 347.529 373.992 352.748 361.396C357.966 348.8 365.615 337.356 375.257 327.717C384.899 318.077 396.345 310.432 408.943 305.217C421.54 300.002 435.041 297.32 448.675 297.324ZM448.675 297.324C469.212 297.324 489.288 303.414 506.364 314.825C523.44 326.235 536.748 342.453 544.606 361.428C552.464 380.402 554.518 401.281 550.51 421.423C546.501 441.565 536.609 460.066 522.085 474.586C507.561 489.106 489.057 498.993 468.914 502.996C448.77 506.999 427.892 504.938 408.92 497.075C389.948 489.212 373.734 475.899 362.328 458.82C350.922 441.741 344.838 421.664 344.843 401.126C344.843 387.492 347.529 373.992 352.748 361.396C357.966 348.8 365.615 337.356 375.257 327.717C384.899 318.077 396.345 310.432 408.943 305.217C421.54 300.002 435.041 297.32 448.675 297.324ZM448.675 297.324C469.212 297.324 489.288 303.414 506.364 314.825C523.44 326.235 536.748 342.453 544.606 361.428C552.464 380.402 554.518 401.281 550.51 421.423C546.501 441.565 536.609 460.066 522.085 474.586C507.561 489.106 489.057 498.993 468.914 502.996C448.77 506.999 427.892 504.938 408.92 497.075C389.948 489.212 373.734 475.899 362.328 458.82C350.922 441.741 344.838 421.664 344.843 401.126C344.843 387.492 347.529 373.992 352.748 361.396C357.966 348.8 365.615 337.356 375.257 327.717C384.899 318.077 396.345 310.432 408.943 305.217C421.54 300.002 435.041 297.32 448.675 297.324Z" fill="#CACACA"/>
<path d="M344.756 401.126C344.756 421.651 350.841 441.716 362.242 458.784C373.642 475.851 389.847 489.156 408.808 497.016C427.768 504.876 448.634 506.938 468.766 502.943C488.899 498.947 507.395 489.072 521.916 474.567C536.438 460.062 546.333 441.577 550.352 421.449C554.37 401.321 552.331 380.453 544.493 361.484C536.654 342.514 523.368 326.294 506.313 314.874C489.258 303.454 469.2 297.347 448.675 297.324C435.034 297.308 421.523 299.982 408.916 305.192C396.308 310.401 384.851 318.045 375.2 327.686C365.549 337.326 357.892 348.774 352.668 361.376C347.445 373.977 344.756 387.485 344.756 401.126Z" fill="#CACACA"/>
<path d="M299.456 96.4659L266.276 79.8762C264.144 78.8263 262.419 77.1013 261.369 74.9694L244.78 41.79C243.866 39.9705 242.464 38.4409 240.731 37.372C238.998 36.3031 237.002 35.7371 234.966 35.7371C232.93 35.7371 230.934 36.3031 229.201 37.372C227.468 38.4409 226.066 39.9705 225.152 41.79L208.563 74.9694C207.513 77.1013 205.788 78.8263 203.656 79.8762L170.477 96.4659C168.657 97.3798 167.127 98.7814 166.059 100.514C164.99 102.247 164.424 104.243 164.424 106.279C164.424 108.316 164.99 110.312 166.059 112.045C167.127 113.778 168.657 115.179 170.477 116.093L203.656 132.683C205.788 133.733 207.513 135.458 208.563 137.59L225.152 170.74C226.066 172.559 227.468 174.089 229.201 175.158C230.934 176.227 232.93 176.793 234.966 176.793C237.002 176.793 238.998 176.227 240.731 175.158C242.464 174.089 243.866 172.559 244.78 170.74L261.369 137.59C262.419 135.458 264.144 133.733 266.276 132.683L299.456 116.093C301.275 115.179 302.805 113.778 303.873 112.045C304.942 110.312 305.509 108.316 305.509 106.279C305.509 104.243 304.942 102.247 303.873 100.514C302.805 98.7814 301.275 97.3798 299.456 96.4659Z" fill="#CACACA"/>
<path d="M91.4708 41.1474L68.9814 29.9026C67.5502 29.1787 66.3922 28.0105 65.6809 26.5731L54.4362 4.08347C53.8143 2.85518 52.8639 1.82334 51.6909 1.10249C50.518 0.381644 49.1683 0 47.7915 0C46.4148 0 45.0651 0.381644 43.8921 1.10249C42.7191 1.82334 41.7687 2.85518 41.1468 4.08347L29.9021 26.5731C29.1698 28.0053 28.0047 29.1703 26.5724 29.9026L4.08302 41.1474C2.85474 41.7693 1.82289 42.7196 1.10204 43.8926C0.381203 45.0655 -0.000350952 46.4153 -0.000350952 47.792C-0.000350952 49.1688 0.381203 50.5187 1.10204 51.6916C1.82289 52.8646 2.85474 53.8148 4.08302 54.4367L26.5724 65.6815C28.0099 66.3928 29.1782 67.5508 29.9021 68.9819L41.1468 91.4715C41.7611 92.7086 42.7085 93.7497 43.8825 94.4775C45.0564 95.2053 46.4103 95.5909 47.7915 95.5909C49.1728 95.5909 50.5266 95.2053 51.7005 94.4775C52.8745 93.7497 53.822 92.7086 54.4362 91.4715L65.6809 68.9819C66.385 67.5464 67.5459 66.3855 68.9814 65.6815L91.4708 54.4367C92.7079 53.8224 93.7493 52.875 94.4771 51.7011C95.2049 50.5271 95.5903 49.1733 95.5903 47.792C95.5903 46.4108 95.2049 45.057 94.4771 43.8831C93.7493 42.7092 92.7079 41.7617 91.4708 41.1474Z" fill="#CACACA"/>
<path d="M174.624 152.631L155.873 143.256C154.675 142.662 153.709 141.685 153.127 140.481L143.752 121.759C143.24 120.725 142.449 119.854 141.468 119.245C140.488 118.637 139.357 118.314 138.203 118.314C137.048 118.314 135.917 118.637 134.937 119.245C133.956 119.854 133.165 120.725 132.653 121.759L123.278 140.481C122.648 141.711 121.618 142.69 120.357 143.256L101.635 152.631C100.601 153.143 99.7299 153.934 99.1212 154.915C98.5124 155.895 98.1899 157.027 98.1899 158.181C98.1899 159.335 98.5124 160.466 99.1212 161.447C99.7299 162.427 100.601 163.218 101.635 163.73L120.357 173.106C121.618 173.671 122.648 174.65 123.278 175.88L132.653 194.602C133.165 195.637 133.956 196.507 134.937 197.116C135.917 197.725 137.048 198.047 138.203 198.047C139.357 198.047 140.488 197.725 141.468 197.116C142.449 196.507 143.24 195.637 143.752 194.602L153.127 175.88C153.709 174.676 154.675 173.7 155.873 173.106L174.624 163.642C175.635 163.122 176.484 162.333 177.076 161.361C177.669 160.39 177.982 159.275 177.982 158.137C177.982 156.999 177.669 155.884 177.076 154.912C176.484 153.941 175.635 153.152 174.624 152.631Z" fill="#CACACA"/>
</g>
</svg>
