<svg width="54" height="45" viewBox="0 0 54 45" fill="none" xmlns="http://www.w3.org/2000/svg">
<path d="M20.0017 29.9H20.0015C19.8342 29.9 19.6701 29.8533 19.5277 29.765C19.3853 29.6768 19.2701 29.5505 19.1952 29.4003C19.1203 29.2502 19.0886 29.082 19.1036 28.9147C19.1187 28.7475 19.1799 28.5877 19.2804 28.4534L19.2808 28.4529C20.4292 26.8964 21.9595 25.664 23.723 24.8753L23.858 24.8149L23.7517 24.7121C23.2085 24.1869 22.7768 23.557 22.4826 22.8603C22.1885 22.1639 22.0378 21.4152 22.0395 20.659C22.0835 19.1699 22.7044 17.7565 23.7704 16.7187C24.8368 15.6806 26.2647 15.1 27.751 15.1C29.2373 15.1 30.6652 15.6806 31.7316 16.7187C32.7976 17.7565 33.4185 19.1699 33.4624 20.6591C33.4653 21.4142 33.3156 22.1621 33.0223 22.8577C32.7289 23.5536 32.2979 24.1827 31.7553 24.7071L31.6486 24.8101L31.7841 24.8704C33.2659 25.5289 34.5842 26.5074 35.6451 27.736L35.645 27.7361L35.6486 27.7398C35.7329 27.8278 35.7986 27.932 35.8416 28.0462C35.8847 28.1604 35.9043 28.2821 35.8992 28.4041C35.8941 28.526 35.8644 28.6457 35.812 28.7558C35.7595 28.866 35.6853 28.9643 35.5939 29.0449C35.5026 29.1255 35.3959 29.1867 35.2803 29.2249C35.1647 29.263 35.0427 29.2773 34.9214 29.2669C34.8002 29.2565 34.6824 29.2216 34.5749 29.1642C34.4675 29.1069 34.3728 29.0284 34.2964 28.9333L34.2964 28.9333L34.2947 28.9313C33.0143 27.4211 31.2674 26.3828 29.3312 25.9813L29.3307 25.9812C29.1403 25.9426 28.9672 25.8433 28.8376 25.6981C28.7079 25.5529 28.6285 25.3695 28.6113 25.1752C28.594 24.981 28.6398 24.7864 28.7419 24.6205C28.8438 24.4548 28.9964 24.3265 29.1767 24.2548C29.9083 23.9787 30.5383 23.4855 30.9828 22.8411C31.4275 22.1964 31.6652 21.431 31.6644 20.6472H31.6644L31.6643 20.6437C31.6276 19.6293 31.1998 18.6687 30.4709 17.964C29.742 17.2593 28.7688 16.8655 27.756 16.8655C26.7432 16.8655 25.77 17.2593 25.0411 17.964C24.3122 18.6687 23.8844 19.6293 23.8477 20.6437L23.8476 20.6437L23.8476 20.6472C23.8468 21.431 24.0845 22.1964 24.5292 22.8411C24.9737 23.4856 25.6038 23.9788 26.3354 24.2548C26.5158 24.3262 26.6685 24.454 26.7707 24.6194C26.8731 24.785 26.9194 24.9794 26.9026 25.1736C26.8859 25.3677 26.8071 25.5512 26.6779 25.6968C26.5487 25.8423 26.3762 25.9421 26.1859 25.9813L26.1853 25.9814C23.9904 26.4489 22.046 27.7146 20.7271 29.5343C20.6431 29.6479 20.5338 29.7401 20.4079 29.8036C20.2819 29.8672 20.1427 29.9002 20.0017 29.9Z" fill="#274F51" stroke="white" stroke-width="0.2"/>
<path d="M29 38.9H25C24.7613 38.9 24.5324 38.8052 24.3636 38.6364C24.1948 38.4676 24.1 38.2387 24.1 38C24.1 37.7613 24.1948 37.5324 24.3636 37.3636C24.5324 37.1948 24.7613 37.1 25 37.1H29C29.2387 37.1 29.4676 37.1948 29.6364 37.3636C29.8052 37.5324 29.9 37.7613 29.9 38C29.9 38.2387 29.8052 38.4676 29.6364 38.6364C29.4676 38.8052 29.2387 38.9 29 38.9Z" fill="#274F51" stroke="white" stroke-width="0.2"/>
<path d="M51.9134 35.9974H52.0134V35.8974V2.10264V2.00264H51.9134H2.08655H1.98655V2.10264V35.8974V35.9974H2.08655H5.94667C6.1966 35.9974 6.43645 36.0974 6.6134 36.2757C6.79039 36.4541 6.88995 36.6961 6.88995 36.9487C6.88995 37.2012 6.79039 37.4433 6.6134 37.6216C6.43644 37.7999 6.19659 37.9 5.94667 37.9H1.04328C0.793357 37.9 0.553511 37.7999 0.37655 37.6216C0.199564 37.4433 0.1 37.2012 0.1 36.9487V1.05132C0.1 0.798767 0.199566 0.556695 0.37655 0.378347C0.553505 0.200026 0.793349 0.1 1.04328 0.1H52.9567C53.2067 0.1 53.4465 0.200027 53.6235 0.378347C53.8004 0.556692 53.9 0.798762 53.9 1.05132V36.9487C53.9 37.2012 53.8004 37.4433 53.6235 37.6216C53.4465 37.7999 53.2066 37.9 52.9567 37.9H50.505C50.2551 37.9 50.0153 37.7999 49.8383 37.6216C49.6613 37.4433 49.5617 37.2012 49.5617 36.9487C49.5617 36.6961 49.6613 36.4541 49.8383 36.2757C50.0153 36.0974 50.2551 35.9974 50.505 35.9974H51.9134Z" fill="#274F51" stroke="white" stroke-width="0.2"/>
<path d="M30.0864 42.9542L30.0954 42.846C30.5126 37.789 33.8361 33.6146 38.3157 32.7408M30.0864 42.9542L38.3349 32.8389M30.0864 42.9542H30.195H49.805H49.9136L49.9046 42.846C49.4874 37.789 46.1693 33.6146 41.6896 32.7407L41.6894 32.7407C41.4812 32.7006 41.2919 32.5941 41.1499 32.4373C41.0079 32.2804 40.921 32.0818 40.9022 31.8714C40.8835 31.6611 40.934 31.4503 41.046 31.271C41.158 31.0919 41.3254 30.9539 41.523 30.8778M30.0864 42.9542L41.523 30.8778M38.3157 32.7408C38.3157 32.7407 38.3157 32.7407 38.3157 32.7407L38.3349 32.8389M38.3157 32.7408C38.3157 32.7408 38.3157 32.7408 38.3157 32.7408L38.3349 32.8389M38.3157 32.7408C38.5236 32.7 38.7125 32.5929 38.8539 32.4358C38.9953 32.2786 39.0816 32.0799 39.0998 31.8696C39.118 31.6594 39.067 31.4489 38.9547 31.27C38.8423 31.0911 38.6747 30.9535 38.4771 30.8779M38.3349 32.8389C38.564 32.794 38.7723 32.676 38.9282 32.5027C39.0842 32.3294 39.1794 32.1102 39.1994 31.8783C39.2195 31.6463 39.1633 31.4141 39.0393 31.2168C38.9154 31.0194 38.7305 30.8676 38.5124 30.7843M38.4771 30.8779C38.4772 30.8779 38.4773 30.8779 38.4774 30.878L38.5124 30.7843M38.4771 30.8779C37.692 30.5841 37.0156 30.0581 36.5386 29.3703C36.0616 28.6824 35.8068 27.8654 35.8085 27.029L35.8085 27.0256L35.8086 27.0256C35.848 25.9432 36.3069 24.9184 37.0886 24.1666C37.8704 23.4149 38.9141 22.9949 40 22.9949C41.086 22.9949 42.1296 23.4149 42.9114 24.1666C43.6931 24.9184 44.152 25.9432 44.1914 27.0256L44.1915 27.029H44.1915C44.1932 27.8654 43.9384 28.6824 43.4614 29.3703C42.9844 30.0581 42.3081 30.5841 41.523 30.8778M38.4771 30.8779C38.477 30.8778 38.4769 30.8778 38.4767 30.8777L38.5124 30.7843M38.5124 30.7843L41.523 30.8778M30.195 42.8542V42.7542H30.2037C30.2007 42.7875 30.1978 42.8209 30.195 42.8542ZM30.195 42.8542L30.2947 42.8625C30.2949 42.8597 30.2951 42.857 30.2954 42.8542H30.195ZM49.805 42.8542L49.7053 42.8625C49.7051 42.8597 49.7049 42.857 49.7046 42.8542H49.805ZM49.805 42.8542V42.7542H49.7963C49.7993 42.7875 49.8022 42.8209 49.805 42.8542ZM35.6633 31.5358L35.8007 31.4761L35.6928 31.3721C35.1105 30.8112 34.6478 30.1389 34.3322 29.3954C34.0169 28.6524 33.8551 27.8536 33.8565 27.0469C33.9038 25.454 34.5715 23.9421 35.7182 22.8319C36.8651 21.7213 38.4011 21.1 40 21.1C41.5989 21.1 43.1348 21.7213 44.2818 22.8319C45.4285 23.9421 46.0962 25.454 46.1434 27.0469C46.1449 27.8536 45.9831 28.6524 45.6678 29.3954C45.3523 30.1389 44.8895 30.8112 44.3072 31.3721L44.1993 31.4761L44.3367 31.5358C48.8262 33.487 51.9 38.3459 51.9 43.9271C51.9 44.185 51.7972 44.4325 51.6142 44.6149C51.4312 44.7974 51.1829 44.9 50.924 44.9H29.076C28.8171 44.9 28.5688 44.7974 28.3858 44.6149C28.2028 44.4325 28.1 44.185 28.1 43.9271C28.1 38.3459 31.1738 33.487 35.6633 31.5358Z" fill="#274F51" stroke="white" stroke-width="0.2"/>
<path d="M5.09149 42.97L5.10023 42.8619C5.50661 37.841 8.83536 33.6973 13.3136 32.8299C13.5215 32.7895 13.7104 32.6831 13.8517 32.5272C13.993 32.3713 14.0791 32.1743 14.0973 31.9659C14.1154 31.7575 14.0646 31.5488 13.9524 31.3714C13.8402 31.194 13.6726 31.0573 13.4749 30.9822C13.4748 30.9822 13.4747 30.9822 13.4746 30.9821L13.5101 30.8886C12.7451 30.6033 12.0863 30.0934 11.622 29.4273C11.1577 28.7611 10.9101 27.9704 10.9121 27.1611L5.09149 42.97ZM5.09149 42.97H5.19991H24.8001H24.9087L24.8997 42.8617C24.4826 37.8411 21.1648 33.6973 16.6864 32.8299M5.09149 42.97L16.6674 32.9281M16.5251 30.9822C17.3094 30.6904 17.9849 30.1681 18.461 29.4851C18.937 28.8021 19.1907 27.9911 19.1879 27.1611C19.1879 27.161 19.1879 27.1609 19.1879 27.1607L19.0879 27.1611L16.4899 30.8886M16.5251 30.9822C16.525 30.9823 16.5249 30.9823 16.5248 30.9823L16.4899 30.8886M16.5251 30.9822C16.5252 30.9822 16.5253 30.9822 16.5254 30.9821L16.4899 30.8886M16.5251 30.9822C16.3274 31.0573 16.1598 31.194 16.0476 31.3714C15.9354 31.5488 15.8846 31.7575 15.9027 31.9659C15.9209 32.1743 16.007 32.3713 16.1483 32.5272C16.2896 32.6831 16.4785 32.7895 16.6864 32.8299M16.4899 30.8886C16.2719 30.9713 16.087 31.122 15.9631 31.3179C15.8392 31.5138 15.7831 31.7443 15.8031 31.9745C15.8231 32.2048 15.9183 32.4223 16.0742 32.5944C16.2301 32.7664 16.4383 32.8835 16.6674 32.9281M16.6864 32.8299L16.6674 32.9281M16.6864 32.8299C16.6865 32.83 16.6865 32.83 16.6865 32.83L16.6674 32.9281M10.6667 31.6354L10.8055 31.5755L10.6961 31.4712C10.113 30.9152 9.64981 30.2481 9.33438 29.5102C9.01895 28.7722 8.8578 27.9786 8.86064 27.1774V27.177C8.86064 25.5656 9.50721 24.02 10.6585 22.8803C11.8097 21.7405 13.3714 21.1 15 21.1C16.6286 21.1 18.1903 21.7405 19.3415 22.8803C20.4928 24.02 21.1394 25.5656 21.1394 27.177L21.1394 27.1774C21.1422 27.9786 20.9811 28.7722 20.6656 29.5102C20.3502 30.2481 19.887 30.9152 19.3039 31.4712L19.1945 31.5755L19.3333 31.6354C23.8219 33.5723 26.9 38.3954 26.9 43.935C26.9 44.1906 26.7974 44.4359 26.6146 44.617C26.4317 44.7981 26.1834 44.9 25.9242 44.9H4.07575C3.81665 44.9 3.56835 44.7981 3.38543 44.617C3.20255 44.4359 3.1 44.1906 3.1 43.935C3.1 38.3954 6.17809 33.5723 10.6667 31.6354Z" fill="#274F51" stroke="white" stroke-width="0.2"/>
</svg>
